<svg width="80" height="160" viewBox="0 0 80 160" fill="none" xmlns="http://www.w3.org/2000/svg">
<path d="M40 160C62.0914 160 80 142.091 80 120C80 97.9086 62.0914 80 40 80C17.9086 80 0 97.9086 0 120C0 142.091 17.9086 160 40 160Z" fill="#14282F"/>
<path d="M37.3 134.1V112.5L30.9 118.9C29.7 120.1 28.1 120.1 26.9 118.9C25.7 117.7 25.7 116.1 26.9 114.9L38.1 103.7C38.5 103.3 38.5 103.3 38.9 103.3C39.7 102.9 40.5 102.9 40.9 103.3C41.3 103.3 41.7 103.7 41.7 103.7L52.9 114.9C54.1 116.1 54.1 117.7 52.9 118.9C51.7 120.1 50.1 120.1 48.9 118.9L42.5 112.5V134.1C42.5 135.7 41.3 136.9 39.7 136.9C38.1 136.9 37.3 135.7 37.3 134.1Z" fill="white"/>
<path d="M40 80C62.0914 80 80 62.0914 80 40C80 17.9086 62.0914 0 40 0C17.9086 0 0 17.9086 0 40C0 62.0914 17.9086 80 40 80Z" fill="#14282F"/>
<path d="M37.1984 54.4008V32.8008L30.7984 39.2008C29.5984 40.4008 27.9984 40.4008 26.7984 39.2008C25.5984 38.0008 25.5984 36.4008 26.7984 35.2008L37.9984 24.0008C38.3984 23.6008 38.3984 23.6008 38.7984 23.6008C39.5984 23.2008 40.3984 23.2008 40.7984 23.6008C41.1984 23.6008 41.5984 24.0008 41.5984 24.0008L52.7984 35.2008C53.9984 36.4008 53.9984 38.0008 52.7984 39.2008C51.5984 40.4008 49.9984 40.4008 48.7984 39.2008L42.3984 32.8008V54.4008C42.3984 56.0008 41.1984 57.2008 39.5984 57.2008C37.9984 57.2008 37.1984 56.0008 37.1984 54.4008Z" fill="#FFB800"/>
</svg>
