<svg width="61" height="39" viewBox="0 0 61 39" fill="none" xmlns="http://www.w3.org/2000/svg">
<g opacity="0.5">
<path d="M20.9688 36.1833H21.3367L21.0194 35.9971C15.2033 32.5833 11.5375 26.3886 11.5375 19.5625C11.5375 9.06981 20.0073 0.6 30.5 0.6H54.6458C58.1489 0.6 60.9 3.35106 60.9 6.85417V32.2708C60.9 35.7739 58.1489 38.525 54.6458 38.525H6.35417C2.85106 38.525 0.1 35.7739 0.1 32.2708V6.85417C0.1 3.35106 2.85106 0.6 6.35417 0.6H16.5208C16.8794 0.6 17.1704 0.719072 17.3715 0.92019C17.5726 1.12131 17.6917 1.41231 17.6917 1.77083C17.6917 2.12936 17.5726 2.42036 17.3715 2.62148C17.1704 2.82259 16.8794 2.94167 16.5208 2.94167H6.35417C4.13852 2.94167 2.44167 4.63852 2.44167 6.85417V32.2708C2.44167 34.4865 4.13852 36.1833 6.35417 36.1833H20.9688ZM39.9818 35.9964L39.6536 36.1833H40.0312H54.6458C56.8615 36.1833 58.5583 34.4865 58.5583 32.2708V6.85417C58.5583 4.63852 56.8615 2.94167 54.6458 2.94167H30.5C26.1534 2.94167 22.0619 4.6037 18.9933 7.54447L18.9932 7.54458C12.3454 13.9366 12.0893 24.4208 18.4821 31.0693C24.8741 37.7171 35.3583 37.9732 42.0068 31.5804C48.6546 25.1884 48.9108 14.7042 42.5179 8.05568L42.5165 8.05429C42.0473 7.58501 42.0473 6.88583 42.5165 6.41654C42.9858 5.94726 43.685 5.94726 44.1543 6.41654C45.2922 7.55447 46.1757 8.69069 46.933 10.0791L46.933 10.0792L46.9345 10.0816C52.2439 19.1835 49.0835 30.8135 39.9818 35.9964Z" fill="#14282F" stroke="white" stroke-width="0.2"/>
<path d="M5.18398 11.9373C5.18398 11.5788 5.30306 11.2878 5.50417 11.0867C5.70529 10.8856 5.99629 10.7665 6.35482 10.7665H7.62565C7.98418 10.7665 8.27518 10.8856 8.47629 11.0867C8.67741 11.2878 8.79648 11.5788 8.79648 11.9373C8.79648 12.2959 8.67741 12.5869 8.47629 12.788C8.27518 12.9891 7.98418 13.1082 7.62565 13.1082H6.35482C5.99629 13.1082 5.70529 12.9891 5.50417 12.788C5.30306 12.5869 5.18398 12.2959 5.18398 11.9373Z" fill="#14282F" stroke="white" stroke-width="0.2"/>
<path d="M53.3743 10.7665H54.6452C55.0037 10.7665 55.2947 10.8856 55.4958 11.0867C55.6969 11.2878 55.816 11.5788 55.816 11.9373C55.816 12.2959 55.6969 12.5869 55.4958 12.788C55.2947 12.9891 55.0037 13.1082 54.6452 13.1082H53.3743C53.0158 13.1082 52.7248 12.9891 52.5237 12.788C52.3226 12.5869 52.2035 12.2959 52.2035 11.9373C52.2035 11.5788 52.3226 11.2878 52.5237 11.0867C52.7248 10.8856 53.0158 10.7665 53.3743 10.7665Z" fill="#14282F" stroke="white" stroke-width="0.2"/>
<path d="M31.6445 24.3917H28.0862V26.425C28.0862 26.9333 27.7049 27.3146 27.1966 27.3146H27.0695C26.5612 27.3146 26.1799 26.9333 26.1799 26.425V24.3917H24.0195V22.7396H26.1799V21.3417H24.0195V19.5625H26.1799V12.8271C26.1799 12.3187 26.5612 11.9375 27.0695 11.9375H31.7716C33.4237 11.9375 34.6945 12.3188 35.7112 13.2083C36.7279 14.0979 37.1091 15.2417 37.1091 16.6396C37.1091 18.1646 36.6008 19.3083 35.7112 20.0708C34.8216 20.8333 33.4237 21.3417 31.7716 21.3417H28.0862V22.7396H31.6445V24.3917ZM28.0862 19.5625H31.7716C32.9154 19.5625 33.6779 19.3083 34.3133 18.8C34.8216 18.2917 35.2029 17.5292 35.2029 16.5125C35.2029 15.6229 34.9487 14.8604 34.3133 14.3521C33.6779 13.8437 32.9154 13.4625 31.8987 13.4625H28.2133V19.5625H28.0862Z" fill="#14282F"/>
</g>
</svg>
