<svg width="61" height="61" viewBox="0 0 61 61" fill="none" xmlns="http://www.w3.org/2000/svg">
<g opacity="0.5">
<path d="M6.5 34.3002C6 34.3002 5.5 34.0002 5.2 33.5002L3.6 30.6002L0.7 29.0002C0.3 28.8002 0 28.3002 0 27.7002C0 27.1002 0.3 26.7002 0.8 26.4002L3.7 24.8002L5.2 22.0002C5.5 21.5002 6 21.2002 6.5 21.2002C7 21.2002 7.5 21.5002 7.8 22.0002L9.4 24.9002L12.3 26.5002C12.8 26.8002 13.1 27.3002 13.1 27.8002C13.1 28.3002 12.8 28.8002 12.3 29.1002L9.4 30.7002L7.8 33.6002C7.6 34.0002 7.1 34.3002 6.5 34.3002ZM3 27.7002L4.9 28.7002C5.2 28.8002 5.4 29.0002 5.5 29.3002L6.5 31.2002L7.5 29.3002C7.6 29.0002 7.8 28.8002 8.1 28.7002L10 27.7002L8.1 26.7002C7.8 26.6002 7.6 26.4002 7.5 26.1002L6.5 24.2002L5.5 26.1002C5.4 26.3002 5.2 26.6002 4.9 26.7002L3 27.7002ZM3.6 25.0002C3.6 25.1002 3.6 25.1002 3.6 25.0002V25.0002Z" fill="#14282F"/>
<path d="M54.7992 41.2C54.2992 41.2 53.7992 40.9 53.4992 40.4L52.0992 37.8L49.4992 36.4C48.9992 36.1 48.6992 35.7 48.6992 35.1C48.6992 34.6 48.9992 34.1 49.4992 33.8L52.0992 32.4L53.4992 29.8C53.7992 29.3 54.1992 29 54.7992 29C55.2992 29 55.7992 29.3 56.0992 29.8L57.4992 32.4L60.0992 33.8C60.5992 34.1 60.8992 34.5 60.8992 35.1C60.8992 35.6 60.5992 36.1 60.0992 36.4L57.4992 37.8L56.0992 40.4C55.7992 40.9 55.3992 41.2 54.7992 41.2ZM51.7992 35.2L53.3992 36.1C53.5992 36.2 53.7992 36.4 53.9992 36.7L54.8992 38.3L55.7992 36.7C55.8992 36.5 56.0992 36.3 56.3992 36.1L57.9992 35.2L56.3992 34.3C56.0992 34.2 55.9992 34 55.7992 33.7L54.8992 32.1L53.9992 33.7C53.8992 33.9 53.6992 34.1 53.3992 34.3L51.7992 35.2ZM57.5992 32.6C57.5992 32.7 57.5992 32.6 57.5992 32.6V32.6Z" fill="#14282F"/>
<path d="M29.1008 56.2006C22.4008 56.2006 15.3008 54.6006 15.3008 51.1006C15.3008 47.9006 21.5008 46.4006 26.7008 46.1006H27.2008L27.3008 48.3006H26.8008C20.2008 48.7006 17.4008 50.5006 17.4008 51.1006C17.4008 52.0006 21.4008 54.0006 29.0008 54.0006C36.6008 54.0006 40.6008 52.0006 40.6008 51.1006C40.6008 50.5006 38.3008 48.9006 32.5008 48.4006L32.7008 46.2006C35.1008 46.4006 42.8008 47.4006 42.8008 51.1006C43.0008 54.6006 35.8008 56.2006 29.1008 56.2006Z" fill="#14282F"/>
<path d="M29.1 60.7999C15.3 60.7999 0.5 57.3999 0.5 51.0999C0.5 48.0999 4.1 45.3999 10.6 43.5999C11.2 43.3999 11.8 43.7999 12 44.3999C12.2 44.9999 11.8 45.5999 11.2 45.7999C6 47.1999 2.7 49.2999 2.7 51.1999C2.7 54.6999 13.5 58.6999 29.1 58.6999C36.5 58.6999 43.3 57.7999 48.4 56.1999C49 55.9999 49.6 56.2999 49.8 56.8999C50 57.4999 49.7 58.0999 49.1 58.2999C43.8 59.8999 36.7 60.7999 29.1 60.7999Z" fill="#14282F"/>
<path d="M56.5991 52.1997C55.9991 52.1997 55.4991 51.6997 55.4991 51.0997C55.4991 48.2997 47.9991 44.7997 35.4991 43.7997C34.8991 43.7997 34.3991 43.1997 34.4991 42.5997C34.4991 41.9997 35.0991 41.4997 35.6991 41.5997C45.8991 42.3997 57.6991 45.2997 57.6991 50.9997C57.6991 51.6997 57.1991 52.1997 56.5991 52.1997Z" fill="#14282F"/>
<path d="M21.2007 44C20.6007 44 20.2007 43.6 20.1007 43C20.0007 42.4 20.5007 41.9 21.1007 41.8C22.4007 41.7 23.7007 41.6 25.0007 41.5C25.6007 41.5 26.1007 41.9 26.1007 42.5C26.1007 43.1 25.7007 43.6 25.1007 43.6C23.8007 43.7 22.5007 43.7 21.3007 43.9C21.3007 44 21.3007 44 21.2007 44Z" fill="#14282F"/>
<path d="M30.1004 52.4L29.2004 51.1C28.5004 50.1 12.9004 26.9 12.9004 18.1C12.9004 11.3 17.1004 5.19999 23.6004 2.59999C24.2004 2.39999 24.8004 2.69999 25.0004 3.19999C25.2004 3.79999 24.9004 4.39999 24.4004 4.59999C18.7004 6.79999 15.1004 12.1 15.1004 18.1C15.1004 25.1 26.7004 43.4 30.1004 48.5C33.5004 43.4 45.1004 25.1 45.1004 18.1C45.1004 11.9 41.0004 6.39999 35.0004 4.39999C34.4004 4.19999 34.1004 3.59999 34.3004 2.99999C34.5004 2.39999 35.1004 2.09999 35.7004 2.29999C42.7004 4.49999 47.4004 10.9 47.4004 18C47.4004 26.9 31.8004 50 31.1004 51L30.1004 52.4Z" fill="#14282F"/>
<path d="M30.1008 29.0004C24.2008 29.0004 19.3008 24.2004 19.3008 18.2004C19.3008 12.2004 24.2008 7.40039 30.1008 7.40039C36.0008 7.40039 40.9008 12.2004 40.9008 18.2004C40.9008 24.2004 36.1008 29.0004 30.1008 29.0004ZM30.1008 9.60039C25.4008 9.60039 21.5008 13.5004 21.5008 18.2004C21.5008 22.9004 25.4008 26.8004 30.1008 26.8004C34.8008 26.8004 38.7008 22.9004 38.7008 18.2004C38.7008 13.4004 34.9008 9.60039 30.1008 9.60039Z" fill="#14282F"/>
<path d="M29.8008 3.2002C30.3531 3.2002 30.8008 2.75248 30.8008 2.2002C30.8008 1.64791 30.3531 1.2002 29.8008 1.2002C29.2485 1.2002 28.8008 1.64791 28.8008 2.2002C28.8008 2.75248 29.2485 3.2002 29.8008 3.2002Z" fill="#14282F" stroke="black" stroke-width="0.5" stroke-miterlimit="10"/>
<path d="M16.0996 44.5C16.6519 44.5 17.0996 44.0523 17.0996 43.5C17.0996 42.9477 16.6519 42.5 16.0996 42.5C15.5473 42.5 15.0996 42.9477 15.0996 43.5C15.0996 44.0523 15.5473 44.5 16.0996 44.5Z" fill="#14282F"/>
<path d="M54.0996 55.6006C54.6519 55.6006 55.0996 55.1529 55.0996 54.6006C55.0996 54.0483 54.6519 53.6006 54.0996 53.6006C53.5473 53.6006 53.0996 54.0483 53.0996 54.6006C53.0996 55.1529 53.5473 55.6006 54.0996 55.6006Z" fill="#14282F"/>
</g>
</svg>
