<svg width="57" height="54" viewBox="0 0 57 54" fill="none" xmlns="http://www.w3.org/2000/svg">
<g opacity="0.5">
<mask id="path-1-outside-1" maskUnits="userSpaceOnUse" x="0" y="0" width="57" height="54" fill="black">
<rect fill="white" width="57" height="54"/>
<path d="M55.1548 1.13389C51.0045 1.66941 44.9129 1.5355 40.294 2.94125C38.018 3.61065 36.0098 4.68171 34.9388 6.55604C33.9347 8.36344 33.8677 10.7733 34.9388 13.8526C33.7339 14.7897 32.5959 15.8608 31.5918 16.8649C31.1232 15.0575 30.9224 12.9154 31.6587 9.36755C31.7256 9.03285 31.5248 8.6312 31.1901 8.56426C31.1232 8.56426 31.0562 8.56426 30.9893 8.56426C30.6546 8.56426 30.3868 8.76507 30.3199 9.09977C30.0521 10.2378 29.9183 11.2419 29.8513 12.1791C28.9141 11.6435 27.977 11.108 27.0398 10.6394C27.3745 7.35931 26.6382 5.01642 25.1655 3.54373C23.6259 2.0041 21.4838 1.46857 19.0739 1.40163C14.2542 1.26775 8.36344 3.0082 4.28008 3.54373C3.94538 3.61067 3.67762 3.94535 3.67762 4.28006C3.67762 4.41394 3.74456 4.48089 3.8115 4.54783C4.94948 6.08746 7.82792 10.7063 11.6435 13.9864C13.5179 15.593 15.6599 16.9318 18.0029 17.3334C20.3458 17.7351 22.8226 17.1326 25.2324 15.1244C25.5002 14.9236 25.5671 14.455 25.3663 14.1873C25.1655 13.9195 24.6969 13.8526 24.4291 14.0534L24.3622 14.1203C22.2201 15.9277 20.2788 16.3293 18.2706 15.9946C16.3294 15.6599 14.3211 14.455 12.5807 12.9154C9.36755 10.1708 6.9577 6.55604 5.61889 4.54783C9.83613 3.87843 15.0575 2.47266 19.1408 2.60654C21.3499 2.67349 23.1573 3.14209 24.3622 4.34702C25.4332 5.41807 26.0357 7.15851 25.8349 9.90306C22.5548 8.49732 18.94 7.56014 15.1914 7.09156C15.1244 7.09156 15.0575 7.09156 14.9905 7.09156C14.5889 7.09156 14.3211 7.42626 14.3211 7.76096C14.3211 8.09567 14.6558 8.43037 14.9905 8.43037C20.5466 9.03283 25.5002 10.7733 29.9183 13.5179C29.9852 15.5261 30.3868 17.0657 30.7885 18.4045C31.3909 20.4797 31.8595 22.0193 30.9893 24.9647C28.3786 25.0316 26.2365 26.6382 25.2324 28.9142C25.0985 29.2489 25.2324 29.6505 25.5671 29.7844C25.9018 29.9183 26.3035 29.7844 26.4374 29.4497C27.2406 27.5753 29.048 26.3035 31.1232 26.3035C33.3322 26.3035 35.1396 27.6423 35.8759 29.5836C36.0098 29.9183 36.4115 30.1191 36.7462 29.9852C37.0809 29.8513 37.2817 29.4497 37.1478 29.115C36.3445 27.0398 34.5371 25.5002 32.2612 25.0985C33.1314 22.1532 32.5959 20.145 32.0603 18.2037C35.6751 14.3211 41.0304 10.7063 46.2517 8.63118C46.5864 8.56424 46.8542 8.16263 46.7203 7.82793C46.5864 7.49323 46.2517 7.22546 45.917 7.35934C45.8501 7.35934 45.7831 7.35932 45.7162 7.42626C42.3692 8.76507 39.0221 10.6394 36.0768 12.8485C35.2065 10.2378 35.3404 8.43037 36.1437 7.09156C36.947 5.68581 38.6205 4.74865 40.6957 4.07924C44.6451 2.87431 50.0004 2.87431 54.2846 2.40573C53.4813 4.68171 52.0755 8.832 49.7326 12.3129C48.3938 14.2542 46.8542 15.9277 44.9798 16.731C43.1724 17.6012 41.0973 17.6682 38.6205 16.5302C38.2858 16.3963 37.8842 16.5302 37.7503 16.8649C37.6164 17.1996 37.7503 17.6012 38.085 17.7351C40.8965 19.0739 43.4402 18.94 45.5823 17.9359C47.7244 16.9318 49.4648 15.1244 50.8706 13.0493C53.6821 8.89897 55.2887 3.67761 55.9581 1.87022C56.0919 1.53552 55.8911 1.13388 55.5564 1C55.3556 1.13388 55.2217 1.06695 55.1548 1.13389ZM49.6657 26.839C47.9922 26.839 46.3186 27.2406 44.779 28.3117L37.5495 33.2653C37.2148 33.4661 37.1478 33.8677 37.3486 34.2024C37.5495 34.5371 37.9511 34.6041 38.2858 34.4032L45.5154 29.4497C48.126 27.7092 51.3392 27.977 53.5482 29.3827C53.6152 29.4496 53.6821 29.5166 53.6821 29.6505C53.6821 29.8513 53.5482 30.0521 53.4813 30.186L36.6792 46.3187C36.3445 46.6534 35.7421 46.9211 35.2065 46.9881L14.1873 49.3979C13.7856 49.4648 13.5179 49.7995 13.5848 50.1342C13.6517 50.5359 13.9864 50.8036 14.3211 50.7367L35.3404 48.3269C36.2106 48.2599 37.0139 47.8583 37.5495 47.3228L54.3515 31.1901C54.7531 30.7885 54.954 30.2529 54.954 29.7174C54.954 29.1819 54.7531 28.5795 54.2176 28.2447C52.9457 27.3076 51.3392 26.839 49.6657 26.839ZM18.4714 31.1232C14.5889 31.1232 12.0452 32.8636 10.2378 34.8049V33.3322C10.2378 32.9306 9.97001 32.6628 9.56837 32.6628H1.6694C1.60246 32.6628 1.60246 32.6628 1.53552 32.6628C1.20082 32.7297 1 32.9975 1 33.3322V52.678C1 53.0796 1.26776 53.3474 1.6694 53.3474H9.56837C9.97001 53.3474 10.2378 53.0796 10.2378 52.678V36.8131C11.9782 34.6041 14.2542 32.462 18.4714 32.462C19.8772 32.462 21.7515 32.9975 23.1573 33.8008C23.2912 33.8677 23.3581 33.8677 23.492 33.8677H28.2447C29.3827 33.8677 30.7215 34.0016 31.6587 34.6041C32.5959 35.2066 33.3322 36.2776 33.2653 38.5535C33.2653 38.9552 32.9975 39.2229 32.6628 39.2229H23.6259C23.2242 39.2229 22.9564 39.4907 22.9564 39.8924C22.9564 40.294 23.2242 40.5618 23.6259 40.5618H32.6628C33.7339 40.5618 34.6041 39.6246 34.6041 38.6205C34.6041 36.0098 33.7339 34.3363 32.395 33.533C31.0562 32.6628 29.5166 32.5959 28.2447 32.5959H23.6259C21.9523 31.6587 20.078 31.1232 18.4714 31.1232ZM2.33881 33.9347H8.89897V51.9417H2.33881V33.9347Z"/>
</mask>
<path d="M55.1548 1.13389C51.0045 1.66941 44.9129 1.5355 40.294 2.94125C38.018 3.61065 36.0098 4.68171 34.9388 6.55604C33.9347 8.36344 33.8677 10.7733 34.9388 13.8526C33.7339 14.7897 32.5959 15.8608 31.5918 16.8649C31.1232 15.0575 30.9224 12.9154 31.6587 9.36755C31.7256 9.03285 31.5248 8.6312 31.1901 8.56426C31.1232 8.56426 31.0562 8.56426 30.9893 8.56426C30.6546 8.56426 30.3868 8.76507 30.3199 9.09977C30.0521 10.2378 29.9183 11.2419 29.8513 12.1791C28.9141 11.6435 27.977 11.108 27.0398 10.6394C27.3745 7.35931 26.6382 5.01642 25.1655 3.54373C23.6259 2.0041 21.4838 1.46857 19.0739 1.40163C14.2542 1.26775 8.36344 3.0082 4.28008 3.54373C3.94538 3.61067 3.67762 3.94535 3.67762 4.28006C3.67762 4.41394 3.74456 4.48089 3.8115 4.54783C4.94948 6.08746 7.82792 10.7063 11.6435 13.9864C13.5179 15.593 15.6599 16.9318 18.0029 17.3334C20.3458 17.7351 22.8226 17.1326 25.2324 15.1244C25.5002 14.9236 25.5671 14.455 25.3663 14.1873C25.1655 13.9195 24.6969 13.8526 24.4291 14.0534L24.3622 14.1203C22.2201 15.9277 20.2788 16.3293 18.2706 15.9946C16.3294 15.6599 14.3211 14.455 12.5807 12.9154C9.36755 10.1708 6.9577 6.55604 5.61889 4.54783C9.83613 3.87843 15.0575 2.47266 19.1408 2.60654C21.3499 2.67349 23.1573 3.14209 24.3622 4.34702C25.4332 5.41807 26.0357 7.15851 25.8349 9.90306C22.5548 8.49732 18.94 7.56014 15.1914 7.09156C15.1244 7.09156 15.0575 7.09156 14.9905 7.09156C14.5889 7.09156 14.3211 7.42626 14.3211 7.76096C14.3211 8.09567 14.6558 8.43037 14.9905 8.43037C20.5466 9.03283 25.5002 10.7733 29.9183 13.5179C29.9852 15.5261 30.3868 17.0657 30.7885 18.4045C31.3909 20.4797 31.8595 22.0193 30.9893 24.9647C28.3786 25.0316 26.2365 26.6382 25.2324 28.9142C25.0985 29.2489 25.2324 29.6505 25.5671 29.7844C25.9018 29.9183 26.3035 29.7844 26.4374 29.4497C27.2406 27.5753 29.048 26.3035 31.1232 26.3035C33.3322 26.3035 35.1396 27.6423 35.8759 29.5836C36.0098 29.9183 36.4115 30.1191 36.7462 29.9852C37.0809 29.8513 37.2817 29.4497 37.1478 29.115C36.3445 27.0398 34.5371 25.5002 32.2612 25.0985C33.1314 22.1532 32.5959 20.145 32.0603 18.2037C35.6751 14.3211 41.0304 10.7063 46.2517 8.63118C46.5864 8.56424 46.8542 8.16263 46.7203 7.82793C46.5864 7.49323 46.2517 7.22546 45.917 7.35934C45.8501 7.35934 45.7831 7.35932 45.7162 7.42626C42.3692 8.76507 39.0221 10.6394 36.0768 12.8485C35.2065 10.2378 35.3404 8.43037 36.1437 7.09156C36.947 5.68581 38.6205 4.74865 40.6957 4.07924C44.6451 2.87431 50.0004 2.87431 54.2846 2.40573C53.4813 4.68171 52.0755 8.832 49.7326 12.3129C48.3938 14.2542 46.8542 15.9277 44.9798 16.731C43.1724 17.6012 41.0973 17.6682 38.6205 16.5302C38.2858 16.3963 37.8842 16.5302 37.7503 16.8649C37.6164 17.1996 37.7503 17.6012 38.085 17.7351C40.8965 19.0739 43.4402 18.94 45.5823 17.9359C47.7244 16.9318 49.4648 15.1244 50.8706 13.0493C53.6821 8.89897 55.2887 3.67761 55.9581 1.87022C56.0919 1.53552 55.8911 1.13388 55.5564 1C55.3556 1.13388 55.2217 1.06695 55.1548 1.13389ZM49.6657 26.839C47.9922 26.839 46.3186 27.2406 44.779 28.3117L37.5495 33.2653C37.2148 33.4661 37.1478 33.8677 37.3486 34.2024C37.5495 34.5371 37.9511 34.6041 38.2858 34.4032L45.5154 29.4497C48.126 27.7092 51.3392 27.977 53.5482 29.3827C53.6152 29.4496 53.6821 29.5166 53.6821 29.6505C53.6821 29.8513 53.5482 30.0521 53.4813 30.186L36.6792 46.3187C36.3445 46.6534 35.7421 46.9211 35.2065 46.9881L14.1873 49.3979C13.7856 49.4648 13.5179 49.7995 13.5848 50.1342C13.6517 50.5359 13.9864 50.8036 14.3211 50.7367L35.3404 48.3269C36.2106 48.2599 37.0139 47.8583 37.5495 47.3228L54.3515 31.1901C54.7531 30.7885 54.954 30.2529 54.954 29.7174C54.954 29.1819 54.7531 28.5795 54.2176 28.2447C52.9457 27.3076 51.3392 26.839 49.6657 26.839ZM18.4714 31.1232C14.5889 31.1232 12.0452 32.8636 10.2378 34.8049V33.3322C10.2378 32.9306 9.97001 32.6628 9.56837 32.6628H1.6694C1.60246 32.6628 1.60246 32.6628 1.53552 32.6628C1.20082 32.7297 1 32.9975 1 33.3322V52.678C1 53.0796 1.26776 53.3474 1.6694 53.3474H9.56837C9.97001 53.3474 10.2378 53.0796 10.2378 52.678V36.8131C11.9782 34.6041 14.2542 32.462 18.4714 32.462C19.8772 32.462 21.7515 32.9975 23.1573 33.8008C23.2912 33.8677 23.3581 33.8677 23.492 33.8677H28.2447C29.3827 33.8677 30.7215 34.0016 31.6587 34.6041C32.5959 35.2066 33.3322 36.2776 33.2653 38.5535C33.2653 38.9552 32.9975 39.2229 32.6628 39.2229H23.6259C23.2242 39.2229 22.9564 39.4907 22.9564 39.8924C22.9564 40.294 23.2242 40.5618 23.6259 40.5618H32.6628C33.7339 40.5618 34.6041 39.6246 34.6041 38.6205C34.6041 36.0098 33.7339 34.3363 32.395 33.533C31.0562 32.6628 29.5166 32.5959 28.2447 32.5959H23.6259C21.9523 31.6587 20.078 31.1232 18.4714 31.1232ZM2.33881 33.9347H8.89897V51.9417H2.33881V33.9347Z" fill="#14282F"/>
<path d="M55.1548 1.13389C51.0045 1.66941 44.9129 1.5355 40.294 2.94125C38.018 3.61065 36.0098 4.68171 34.9388 6.55604C33.9347 8.36344 33.8677 10.7733 34.9388 13.8526C33.7339 14.7897 32.5959 15.8608 31.5918 16.8649C31.1232 15.0575 30.9224 12.9154 31.6587 9.36755C31.7256 9.03285 31.5248 8.6312 31.1901 8.56426C31.1232 8.56426 31.0562 8.56426 30.9893 8.56426C30.6546 8.56426 30.3868 8.76507 30.3199 9.09977C30.0521 10.2378 29.9183 11.2419 29.8513 12.1791C28.9141 11.6435 27.977 11.108 27.0398 10.6394C27.3745 7.35931 26.6382 5.01642 25.1655 3.54373C23.6259 2.0041 21.4838 1.46857 19.0739 1.40163C14.2542 1.26775 8.36344 3.0082 4.28008 3.54373C3.94538 3.61067 3.67762 3.94535 3.67762 4.28006C3.67762 4.41394 3.74456 4.48089 3.8115 4.54783C4.94948 6.08746 7.82792 10.7063 11.6435 13.9864C13.5179 15.593 15.6599 16.9318 18.0029 17.3334C20.3458 17.7351 22.8226 17.1326 25.2324 15.1244C25.5002 14.9236 25.5671 14.455 25.3663 14.1873C25.1655 13.9195 24.6969 13.8526 24.4291 14.0534L24.3622 14.1203C22.2201 15.9277 20.2788 16.3293 18.2706 15.9946C16.3294 15.6599 14.3211 14.455 12.5807 12.9154C9.36755 10.1708 6.9577 6.55604 5.61889 4.54783C9.83613 3.87843 15.0575 2.47266 19.1408 2.60654C21.3499 2.67349 23.1573 3.14209 24.3622 4.34702C25.4332 5.41807 26.0357 7.15851 25.8349 9.90306C22.5548 8.49732 18.94 7.56014 15.1914 7.09156C15.1244 7.09156 15.0575 7.09156 14.9905 7.09156C14.5889 7.09156 14.3211 7.42626 14.3211 7.76096C14.3211 8.09567 14.6558 8.43037 14.9905 8.43037C20.5466 9.03283 25.5002 10.7733 29.9183 13.5179C29.9852 15.5261 30.3868 17.0657 30.7885 18.4045C31.3909 20.4797 31.8595 22.0193 30.9893 24.9647C28.3786 25.0316 26.2365 26.6382 25.2324 28.9142C25.0985 29.2489 25.2324 29.6505 25.5671 29.7844C25.9018 29.9183 26.3035 29.7844 26.4374 29.4497C27.2406 27.5753 29.048 26.3035 31.1232 26.3035C33.3322 26.3035 35.1396 27.6423 35.8759 29.5836C36.0098 29.9183 36.4115 30.1191 36.7462 29.9852C37.0809 29.8513 37.2817 29.4497 37.1478 29.115C36.3445 27.0398 34.5371 25.5002 32.2612 25.0985C33.1314 22.1532 32.5959 20.145 32.0603 18.2037C35.6751 14.3211 41.0304 10.7063 46.2517 8.63118C46.5864 8.56424 46.8542 8.16263 46.7203 7.82793C46.5864 7.49323 46.2517 7.22546 45.917 7.35934C45.8501 7.35934 45.7831 7.35932 45.7162 7.42626C42.3692 8.76507 39.0221 10.6394 36.0768 12.8485C35.2065 10.2378 35.3404 8.43037 36.1437 7.09156C36.947 5.68581 38.6205 4.74865 40.6957 4.07924C44.6451 2.87431 50.0004 2.87431 54.2846 2.40573C53.4813 4.68171 52.0755 8.832 49.7326 12.3129C48.3938 14.2542 46.8542 15.9277 44.9798 16.731C43.1724 17.6012 41.0973 17.6682 38.6205 16.5302C38.2858 16.3963 37.8842 16.5302 37.7503 16.8649C37.6164 17.1996 37.7503 17.6012 38.085 17.7351C40.8965 19.0739 43.4402 18.94 45.5823 17.9359C47.7244 16.9318 49.4648 15.1244 50.8706 13.0493C53.6821 8.89897 55.2887 3.67761 55.9581 1.87022C56.0919 1.53552 55.8911 1.13388 55.5564 1C55.3556 1.13388 55.2217 1.06695 55.1548 1.13389ZM49.6657 26.839C47.9922 26.839 46.3186 27.2406 44.779 28.3117L37.5495 33.2653C37.2148 33.4661 37.1478 33.8677 37.3486 34.2024C37.5495 34.5371 37.9511 34.6041 38.2858 34.4032L45.5154 29.4497C48.126 27.7092 51.3392 27.977 53.5482 29.3827C53.6152 29.4496 53.6821 29.5166 53.6821 29.6505C53.6821 29.8513 53.5482 30.0521 53.4813 30.186L36.6792 46.3187C36.3445 46.6534 35.7421 46.9211 35.2065 46.9881L14.1873 49.3979C13.7856 49.4648 13.5179 49.7995 13.5848 50.1342C13.6517 50.5359 13.9864 50.8036 14.3211 50.7367L35.3404 48.3269C36.2106 48.2599 37.0139 47.8583 37.5495 47.3228L54.3515 31.1901C54.7531 30.7885 54.954 30.2529 54.954 29.7174C54.954 29.1819 54.7531 28.5795 54.2176 28.2447C52.9457 27.3076 51.3392 26.839 49.6657 26.839ZM18.4714 31.1232C14.5889 31.1232 12.0452 32.8636 10.2378 34.8049V33.3322C10.2378 32.9306 9.97001 32.6628 9.56837 32.6628H1.6694C1.60246 32.6628 1.60246 32.6628 1.53552 32.6628C1.20082 32.7297 1 32.9975 1 33.3322V52.678C1 53.0796 1.26776 53.3474 1.6694 53.3474H9.56837C9.97001 53.3474 10.2378 53.0796 10.2378 52.678V36.8131C11.9782 34.6041 14.2542 32.462 18.4714 32.462C19.8772 32.462 21.7515 32.9975 23.1573 33.8008C23.2912 33.8677 23.3581 33.8677 23.492 33.8677H28.2447C29.3827 33.8677 30.7215 34.0016 31.6587 34.6041C32.5959 35.2066 33.3322 36.2776 33.2653 38.5535C33.2653 38.9552 32.9975 39.2229 32.6628 39.2229H23.6259C23.2242 39.2229 22.9564 39.4907 22.9564 39.8924C22.9564 40.294 23.2242 40.5618 23.6259 40.5618H32.6628C33.7339 40.5618 34.6041 39.6246 34.6041 38.6205C34.6041 36.0098 33.7339 34.3363 32.395 33.533C31.0562 32.6628 29.5166 32.5959 28.2447 32.5959H23.6259C21.9523 31.6587 20.078 31.1232 18.4714 31.1232ZM2.33881 33.9347H8.89897V51.9417H2.33881V33.9347Z" stroke="#14282F" stroke-width="0.4" mask="url(#path-1-outside-1)"/>
</g>
</svg>
