<svg width="60" height="60" viewBox="0 0 60 60" fill="none" xmlns="http://www.w3.org/2000/svg">
<g opacity="0.5">
<mask id="path-1-inside-1" fill="white">
<path d="M30.0064 59.963C27.4184 59.963 24.8428 59.863 22.3673 59.6505C19.9668 59.4504 17.6413 59.1504 15.4658 58.7753C13.3153 58.3877 11.3149 57.9251 9.55204 57.4C7.75166 56.8624 6.17632 56.2497 4.83853 55.5746C3.90083 55.087 3.11316 54.6119 2.46303 54.0993C1.75037 53.5492 1.20026 52.974 0.775166 52.3489C0.275059 51.5737 0 50.7111 0 49.8734C0 49.0357 0.275059 48.173 0.800171 47.3978C1.27527 46.6977 1.91291 46.0476 2.7881 45.4224C3.58827 44.8473 4.55097 44.2972 5.66371 43.7971C6.73894 43.3095 7.9642 42.8594 9.32699 42.4343C9.70207 42.3218 10.1147 42.3968 10.4272 42.6218C10.6523 42.7844 10.8023 43.0094 10.8898 43.2595C10.9273 43.3845 10.9398 43.5095 10.9398 43.6345C10.9398 44.1847 10.5773 44.6598 10.0521 44.8223C8.16424 45.3974 6.58891 46.0476 5.33864 46.7477C4.18839 47.3978 3.31321 48.123 2.87561 48.7856C2.62556 49.1732 2.50053 49.5108 2.50053 49.8734C2.50053 50.236 2.62556 50.5735 2.87561 50.9611C3.16318 51.3987 3.63828 51.8613 4.25091 52.2989C5.56369 53.2616 7.56412 54.1618 10.0396 54.9245C15.2658 56.5373 22.5423 57.4625 29.9814 57.4625H30.0189C37.1829 57.4625 44.0094 56.6373 49.223 55.1495C49.3355 55.112 49.4481 55.0995 49.5731 55.0995C50.1232 55.0995 50.6233 55.4746 50.7733 56.0122C50.9609 56.6748 50.5733 57.3625 49.9107 57.5625C47.2351 58.3252 44.1844 58.9253 40.8462 59.3254C37.408 59.738 33.7572 59.9505 30.0064 59.963ZM55.3743 55.287C54.9242 55.287 54.5116 55.0495 54.2866 54.6619C54.1241 54.3743 54.0741 54.0368 54.1616 53.7117C54.2491 53.3866 54.4616 53.1241 54.7492 52.949C54.9367 52.8365 55.1493 52.7865 55.3743 52.7865C55.8244 52.7865 56.237 53.024 56.4621 53.4116C56.7996 54.0118 56.5996 54.7744 55.9995 55.112C55.8119 55.2245 55.5869 55.287 55.3743 55.287ZM29.3063 55.0245C27.1683 55.0245 25.0554 54.8369 23.205 54.4994C21.3296 54.1493 19.7917 53.6617 18.629 53.0366C17.7038 52.5364 17.1037 52.0238 16.6911 51.3862C16.416 50.9486 16.2535 50.436 16.2535 49.9484C16.2535 49.3608 16.466 48.8732 16.6411 48.5731C16.8536 48.2105 17.1537 47.873 17.5412 47.5604C18.2039 47.0228 19.0541 46.5852 20.1918 46.1726C21.8172 45.5975 23.8801 45.1974 26.1306 44.9973C25.9305 44.6473 25.718 44.2847 25.518 43.9471C25.2304 43.447 24.9428 42.9344 24.6553 42.4343C23.7926 42.4843 22.9174 42.5468 22.0797 42.6218C21.7296 42.6593 21.3796 42.5343 21.1295 42.2968C20.892 42.0842 20.7544 41.7967 20.7294 41.4841C20.7044 41.1465 20.8044 40.8214 21.017 40.5714C21.2295 40.3213 21.5296 40.1588 21.8672 40.1338C22.9924 40.0338 24.1552 39.9463 25.3179 39.8962C25.793 39.8712 26.2431 40.1213 26.4682 40.5339C26.8807 41.2715 27.3058 42.0092 27.7059 42.7093C28.006 43.222 28.306 43.7596 28.6311 44.3222C28.7311 44.4847 28.8187 44.6473 28.9062 44.7973L28.9562 44.8973C29.0187 45.0098 29.0812 45.1099 29.1437 45.2224L29.3188 45.5224C29.5438 45.91 29.5438 46.3726 29.3313 46.7602C29.1187 47.1478 28.7186 47.3853 28.281 47.3978C26.4431 47.4479 24.6553 47.6479 23.1174 47.973C21.6921 48.273 20.4544 48.6981 19.6542 49.1482C19.1041 49.4483 18.854 49.7484 18.7915 49.8609C18.779 49.8859 18.754 49.9234 18.754 49.9484C18.754 49.9609 18.7665 49.9984 18.804 50.0484C18.829 50.0859 18.9415 50.2485 19.1916 50.436C19.6417 50.7861 20.4294 51.1611 21.3421 51.4487C23.405 52.1239 26.3056 52.5114 29.2813 52.5114H29.3188C31.3067 52.5114 33.2571 52.3489 34.9575 52.0238C36.5328 51.7363 37.9081 51.2987 38.8208 50.8111C39.3709 50.5235 39.721 50.2109 39.821 50.0359C39.846 49.9859 39.871 49.9484 39.871 49.9359C39.871 49.9234 39.8585 49.9109 39.846 49.8734C39.8335 49.8359 39.7835 49.7484 39.646 49.6233C39.3959 49.3733 38.9083 49.0732 38.3457 48.8232C37.0579 48.248 35.095 47.7854 32.957 47.5479C32.5319 47.4979 32.1694 47.2478 31.9818 46.8727C31.7943 46.4977 31.7943 46.0601 32.0068 45.685L32.0318 45.635C32.1569 45.4224 32.2694 45.2099 32.4069 44.9848C32.4194 44.9598 32.4319 44.9473 32.4444 44.9223L32.4694 44.8848C32.582 44.6973 32.682 44.4972 32.7945 44.2972C33.0821 43.7846 33.4071 43.222 33.7322 42.6218C34.1573 41.8592 34.5199 41.2215 34.8574 40.5964C35.095 40.1713 35.5451 39.9213 36.0327 39.9588C40.1086 40.2213 43.8969 40.7464 47.2851 41.5091C50.6608 42.2718 53.4489 43.2345 55.5619 44.3597C57.0872 45.1849 58.1999 46.0476 58.9501 47.0103C59.4377 47.6354 59.7628 48.2855 59.9128 48.9607C59.9253 49.0482 59.9378 49.1357 59.9378 49.2232C59.9378 49.4983 59.8378 49.7859 59.6752 49.9984C59.5002 50.2235 59.2502 50.386 58.9626 50.4485C58.6 50.5235 58.2124 50.436 57.9124 50.2109C57.6873 50.0359 57.5248 49.7859 57.4623 49.5108C57.3998 49.1982 57.2247 48.8857 56.9747 48.5481C56.6871 48.1855 56.2745 47.7979 55.7619 47.4229C54.6867 46.6352 53.1113 45.8725 51.2109 45.2099C47.4226 43.8846 42.259 42.9219 36.6453 42.5093C36.4078 42.9344 36.1702 43.372 35.8952 43.8471C35.6076 44.3597 35.3325 44.8598 35.07 45.3349C35.9452 45.4849 36.7704 45.6725 37.5205 45.8975C38.8583 46.2851 39.896 46.7477 40.6962 47.2978C41.3463 47.7479 41.7714 48.2105 42.059 48.7606C42.2465 49.1357 42.3465 49.5358 42.3465 49.9359C42.3465 50.4235 42.1965 50.9361 41.909 51.3737C41.6714 51.7488 41.3463 52.0863 40.9212 52.4114C40.1961 52.9615 39.2459 53.4241 38.0206 53.8242C36.8579 54.1993 35.5201 54.4869 34.0573 54.6869C32.5695 54.9245 30.9691 55.0245 29.3063 55.0245ZM15.7784 43.447C15.1657 43.447 14.6531 43.0094 14.5531 42.4093C14.4281 41.7341 14.8907 41.084 15.5658 40.959C15.6408 40.9465 15.7159 40.934 15.7784 40.934C16.391 40.934 16.9036 41.3716 17.0036 41.9717C17.0661 42.2968 16.9911 42.6343 16.7911 42.9094C16.6035 43.1844 16.316 43.3595 15.9784 43.422C15.9159 43.447 15.8409 43.447 15.7784 43.447Z"/>
</mask>
<path d="M30.0064 59.963C27.4184 59.963 24.8428 59.863 22.3673 59.6505C19.9668 59.4504 17.6413 59.1504 15.4658 58.7753C13.3153 58.3877 11.3149 57.9251 9.55204 57.4C7.75166 56.8624 6.17632 56.2497 4.83853 55.5746C3.90083 55.087 3.11316 54.6119 2.46303 54.0993C1.75037 53.5492 1.20026 52.974 0.775166 52.3489C0.275059 51.5737 0 50.7111 0 49.8734C0 49.0357 0.275059 48.173 0.800171 47.3978C1.27527 46.6977 1.91291 46.0476 2.7881 45.4224C3.58827 44.8473 4.55097 44.2972 5.66371 43.7971C6.73894 43.3095 7.9642 42.8594 9.32699 42.4343C9.70207 42.3218 10.1147 42.3968 10.4272 42.6218C10.6523 42.7844 10.8023 43.0094 10.8898 43.2595C10.9273 43.3845 10.9398 43.5095 10.9398 43.6345C10.9398 44.1847 10.5773 44.6598 10.0521 44.8223C8.16424 45.3974 6.58891 46.0476 5.33864 46.7477C4.18839 47.3978 3.31321 48.123 2.87561 48.7856C2.62556 49.1732 2.50053 49.5108 2.50053 49.8734C2.50053 50.236 2.62556 50.5735 2.87561 50.9611C3.16318 51.3987 3.63828 51.8613 4.25091 52.2989C5.56369 53.2616 7.56412 54.1618 10.0396 54.9245C15.2658 56.5373 22.5423 57.4625 29.9814 57.4625H30.0189C37.1829 57.4625 44.0094 56.6373 49.223 55.1495C49.3355 55.112 49.4481 55.0995 49.5731 55.0995C50.1232 55.0995 50.6233 55.4746 50.7733 56.0122C50.9609 56.6748 50.5733 57.3625 49.9107 57.5625C47.2351 58.3252 44.1844 58.9253 40.8462 59.3254C37.408 59.738 33.7572 59.9505 30.0064 59.963ZM55.3743 55.287C54.9242 55.287 54.5116 55.0495 54.2866 54.6619C54.1241 54.3743 54.0741 54.0368 54.1616 53.7117C54.2491 53.3866 54.4616 53.1241 54.7492 52.949C54.9367 52.8365 55.1493 52.7865 55.3743 52.7865C55.8244 52.7865 56.237 53.024 56.4621 53.4116C56.7996 54.0118 56.5996 54.7744 55.9995 55.112C55.8119 55.2245 55.5869 55.287 55.3743 55.287ZM29.3063 55.0245C27.1683 55.0245 25.0554 54.8369 23.205 54.4994C21.3296 54.1493 19.7917 53.6617 18.629 53.0366C17.7038 52.5364 17.1037 52.0238 16.6911 51.3862C16.416 50.9486 16.2535 50.436 16.2535 49.9484C16.2535 49.3608 16.466 48.8732 16.6411 48.5731C16.8536 48.2105 17.1537 47.873 17.5412 47.5604C18.2039 47.0228 19.0541 46.5852 20.1918 46.1726C21.8172 45.5975 23.8801 45.1974 26.1306 44.9973C25.9305 44.6473 25.718 44.2847 25.518 43.9471C25.2304 43.447 24.9428 42.9344 24.6553 42.4343C23.7926 42.4843 22.9174 42.5468 22.0797 42.6218C21.7296 42.6593 21.3796 42.5343 21.1295 42.2968C20.892 42.0842 20.7544 41.7967 20.7294 41.4841C20.7044 41.1465 20.8044 40.8214 21.017 40.5714C21.2295 40.3213 21.5296 40.1588 21.8672 40.1338C22.9924 40.0338 24.1552 39.9463 25.3179 39.8962C25.793 39.8712 26.2431 40.1213 26.4682 40.5339C26.8807 41.2715 27.3058 42.0092 27.7059 42.7093C28.006 43.222 28.306 43.7596 28.6311 44.3222C28.7311 44.4847 28.8187 44.6473 28.9062 44.7973L28.9562 44.8973C29.0187 45.0098 29.0812 45.1099 29.1437 45.2224L29.3188 45.5224C29.5438 45.91 29.5438 46.3726 29.3313 46.7602C29.1187 47.1478 28.7186 47.3853 28.281 47.3978C26.4431 47.4479 24.6553 47.6479 23.1174 47.973C21.6921 48.273 20.4544 48.6981 19.6542 49.1482C19.1041 49.4483 18.854 49.7484 18.7915 49.8609C18.779 49.8859 18.754 49.9234 18.754 49.9484C18.754 49.9609 18.7665 49.9984 18.804 50.0484C18.829 50.0859 18.9415 50.2485 19.1916 50.436C19.6417 50.7861 20.4294 51.1611 21.3421 51.4487C23.405 52.1239 26.3056 52.5114 29.2813 52.5114H29.3188C31.3067 52.5114 33.2571 52.3489 34.9575 52.0238C36.5328 51.7363 37.9081 51.2987 38.8208 50.8111C39.3709 50.5235 39.721 50.2109 39.821 50.0359C39.846 49.9859 39.871 49.9484 39.871 49.9359C39.871 49.9234 39.8585 49.9109 39.846 49.8734C39.8335 49.8359 39.7835 49.7484 39.646 49.6233C39.3959 49.3733 38.9083 49.0732 38.3457 48.8232C37.0579 48.248 35.095 47.7854 32.957 47.5479C32.5319 47.4979 32.1694 47.2478 31.9818 46.8727C31.7943 46.4977 31.7943 46.0601 32.0068 45.685L32.0318 45.635C32.1569 45.4224 32.2694 45.2099 32.4069 44.9848C32.4194 44.9598 32.4319 44.9473 32.4444 44.9223L32.4694 44.8848C32.582 44.6973 32.682 44.4972 32.7945 44.2972C33.0821 43.7846 33.4071 43.222 33.7322 42.6218C34.1573 41.8592 34.5199 41.2215 34.8574 40.5964C35.095 40.1713 35.5451 39.9213 36.0327 39.9588C40.1086 40.2213 43.8969 40.7464 47.2851 41.5091C50.6608 42.2718 53.4489 43.2345 55.5619 44.3597C57.0872 45.1849 58.1999 46.0476 58.9501 47.0103C59.4377 47.6354 59.7628 48.2855 59.9128 48.9607C59.9253 49.0482 59.9378 49.1357 59.9378 49.2232C59.9378 49.4983 59.8378 49.7859 59.6752 49.9984C59.5002 50.2235 59.2502 50.386 58.9626 50.4485C58.6 50.5235 58.2124 50.436 57.9124 50.2109C57.6873 50.0359 57.5248 49.7859 57.4623 49.5108C57.3998 49.1982 57.2247 48.8857 56.9747 48.5481C56.6871 48.1855 56.2745 47.7979 55.7619 47.4229C54.6867 46.6352 53.1113 45.8725 51.2109 45.2099C47.4226 43.8846 42.259 42.9219 36.6453 42.5093C36.4078 42.9344 36.1702 43.372 35.8952 43.8471C35.6076 44.3597 35.3325 44.8598 35.07 45.3349C35.9452 45.4849 36.7704 45.6725 37.5205 45.8975C38.8583 46.2851 39.896 46.7477 40.6962 47.2978C41.3463 47.7479 41.7714 48.2105 42.059 48.7606C42.2465 49.1357 42.3465 49.5358 42.3465 49.9359C42.3465 50.4235 42.1965 50.9361 41.909 51.3737C41.6714 51.7488 41.3463 52.0863 40.9212 52.4114C40.1961 52.9615 39.2459 53.4241 38.0206 53.8242C36.8579 54.1993 35.5201 54.4869 34.0573 54.6869C32.5695 54.9245 30.9691 55.0245 29.3063 55.0245ZM15.7784 43.447C15.1657 43.447 14.6531 43.0094 14.5531 42.4093C14.4281 41.7341 14.8907 41.084 15.5658 40.959C15.6408 40.9465 15.7159 40.934 15.7784 40.934C16.391 40.934 16.9036 41.3716 17.0036 41.9717C17.0661 42.2968 16.9911 42.6343 16.7911 42.9094C16.6035 43.1844 16.316 43.3595 15.9784 43.422C15.9159 43.447 15.8409 43.447 15.7784 43.447Z" fill="#14282F" stroke="white" stroke-width="0.4" mask="url(#path-1-inside-1)"/>
<path d="M39.9064 50.0985L39.9063 50.0985C39.847 50.2022 39.7229 50.3335 39.5509 50.4721C39.3766 50.6125 39.1461 50.766 38.866 50.9124C38.8658 50.9125 38.8657 50.9126 38.8656 50.9126L38.8193 50.824C37.9066 51.3116 36.5313 51.7492 34.9559 52.0368L39.9064 50.0985ZM39.9064 50.0985L39.9089 50.0936C39.9175 50.0765 39.9256 50.0617 39.9336 50.0473C39.9363 50.0424 39.939 50.0375 39.9417 50.0326C39.9464 50.024 39.9519 50.0136 39.9563 50.0038C39.9586 49.9989 39.9614 49.9923 39.9637 49.9848C39.9658 49.9784 39.9695 49.9652 39.9695 49.9488C39.9695 49.9287 39.9643 49.9126 39.9605 49.9028C39.9574 49.8947 39.9535 49.8869 39.9516 49.8831L39.9511 49.8822C39.947 49.8739 39.9433 49.8665 39.9394 49.8547C39.9192 49.7942 39.8556 49.6934 39.7135 49.5639C39.4377 49.2888 38.9501 48.996 38.3848 48.7447C37.2482 48.2395 35.6129 47.8126 33.7818 47.5618L33.7146 47.5526L33.6812 47.6115C32.5676 49.576 31.8317 50.8481 31.7459 50.9829L31.7458 50.9828L31.7438 50.9863C31.5364 51.3435 31.1565 51.5617 30.755 51.5617C30.3582 51.5617 29.9824 51.3485 29.7734 51.0105C29.7733 51.0102 29.7732 51.0099 29.7731 51.0096C29.7685 50.9958 29.761 50.9805 29.749 50.9656C29.6519 50.7981 29.493 50.5299 29.2816 50.1732C28.8905 49.5134 28.3197 48.5504 27.6283 47.3605L27.5978 47.308L27.5371 47.3109C25.9566 47.3861 24.4261 47.5868 23.0956 47.863L23.0953 47.863C21.665 48.1642 20.4166 48.5918 19.6042 49.0487C19.0435 49.3546 18.777 49.6664 18.7026 49.8002L18.6962 49.8118L18.693 49.8245C18.6889 49.8407 18.6828 49.8553 18.6746 49.875L18.6742 49.876C18.6705 49.8849 18.6655 49.8971 18.6615 49.9093C18.6577 49.9211 18.6525 49.9397 18.6525 49.9613C18.6525 50.0227 18.6854 50.0718 18.7209 50.1192C18.753 50.1671 18.8731 50.336 19.1294 50.5284C19.5928 50.8886 20.3926 51.2678 21.3099 51.5568C23.3859 52.2361 26.2974 52.6244 29.2797 52.6244H29.3172C31.3107 52.6244 33.2672 52.4489 34.974 52.1351L39.9064 50.0985ZM17.6025 47.6387L17.6027 47.6385C18.2534 47.1106 19.0921 46.6777 20.2239 46.2672C22.3493 45.5215 25.1139 45.0725 28.1948 44.9852C28.6209 44.9737 29.0111 45.1923 29.2176 45.5594L29.2176 45.5594L29.2184 45.5608C29.3765 45.8313 29.5348 46.1034 29.6931 46.3755C30.01 46.9203 30.3271 47.4656 30.6441 47.9994L30.7313 48.1464L30.8167 47.9983C31.2419 47.2605 31.6671 46.5102 32.092 45.7602C32.3002 45.4021 32.6806 45.1728 33.0931 45.1728C33.1432 45.1728 33.1695 45.1731 33.2063 45.1823L33.2061 45.1832L33.2196 45.1847C34.8028 45.3592 36.2474 45.6333 37.5037 45.994C38.8347 46.3796 39.8616 46.8383 40.6503 47.3805C41.2897 47.8232 41.7024 48.2741 41.9809 48.8066C42.1618 49.1687 42.2575 49.5533 42.2575 49.9363C42.2575 50.4041 42.1134 50.8977 41.8363 51.3192L41.8354 51.3206C41.6056 51.6835 41.2896 52.0127 40.8715 52.3324C40.1582 52.8735 39.2193 53.3316 38.0008 53.7295C36.8444 54.1025 35.5125 54.4014 34.0547 54.6007L34.0534 54.6009C32.559 54.8251 30.9637 54.9249 29.3047 54.9249C27.1724 54.9249 25.0655 54.7378 23.2216 54.4014C21.3521 54.0525 19.8253 53.5674 18.6749 52.949C17.7596 52.4541 17.1745 51.9518 16.7739 51.3328C16.5077 50.9091 16.352 50.415 16.352 49.9488C16.352 49.3849 16.5562 48.9149 16.7259 48.624C16.9313 48.2736 17.2227 47.945 17.6025 47.6387Z" fill="#14282F" stroke="white" stroke-width="0.2"/>
<path d="M32.4319 44.9473C32.4256 44.9598 32.4194 44.9692 32.4131 44.9785C32.4069 44.9879 32.4006 44.9973 32.3944 45.0098C32.2569 45.2473 32.1193 45.4849 31.9943 45.7099C31.7185 46.2048 31.4374 46.6944 31.1613 47.1753C31.0314 47.4016 30.9026 47.626 30.7759 47.8481C30.7856 47.8643 30.7952 47.8805 30.8049 47.8967L30.719 47.9479L30.6321 47.8985C30.6415 47.8821 30.6508 47.8656 30.6602 47.8492L25.0053 3.61346C19.1791 5.96397 15.4033 11.6152 15.4158 18.004H15.3158C15.3158 18.0041 15.3158 18.0042 15.3158 18.0042C15.3158 18.1296 15.3557 18.4895 15.5075 18.9829C15.646 19.4613 15.847 20.0515 16.1102 20.7284C16.6119 22.02 17.3634 23.6733 18.3266 25.6372C19.6904 28.4273 21.5041 31.867 23.6924 35.8435C23.9256 36.2739 24.1589 36.6918 24.3872 37.1007C24.4774 37.2623 24.5669 37.4225 24.6552 37.5816C25.0585 38.3113 25.484 39.0633 25.9312 39.8538C26.0666 40.0931 26.204 40.3359 26.3433 40.5826C26.587 41.0198 26.8318 41.4466 27.069 41.8602C27.245 42.1672 27.417 42.4669 27.5813 42.7584L27.5816 42.7589C27.7093 42.9825 27.8389 43.2077 27.9698 43.435C28.1471 43.743 28.3267 44.0548 28.5066 44.3716L28.5066 44.3716L28.5078 44.3736L28.6204 44.5611L28.8443 44.9345C28.8824 45.0042 28.9234 45.0736 28.9634 45.1413L28.9638 45.1419C29.0046 45.211 29.0444 45.2783 29.0809 45.3452L29.0809 45.3453L29.0825 45.3481L29.207 45.5597C29.2071 45.5598 29.2071 45.5599 29.2072 45.56C29.695 46.4105 30.1703 47.2236 30.6332 47.9992L30.7211 48.1465L30.8059 47.9974C30.9504 47.7435 31.0982 47.4861 31.2475 47.226C31.5239 46.7447 31.8056 46.254 32.0817 45.7586L32.0817 45.7585C32.2062 45.5344 32.3433 45.2976 32.4809 45.0599L32.4811 45.06L32.4838 45.0545C32.487 45.0482 32.4901 45.0434 32.4964 45.034C32.5023 45.0251 32.5112 45.0119 32.5201 44.9944M32.4319 44.9473L32.5191 44.9963C32.5194 44.9957 32.5198 44.9951 32.5201 44.9944M32.4319 44.9473C32.4657 44.8872 32.5006 44.8259 32.536 44.7639C32.6184 44.6195 32.7033 44.4708 32.782 44.3222L32.4319 44.9473ZM32.5201 44.9944C32.553 44.936 32.5872 44.8761 32.622 44.815C32.7045 44.6705 32.7903 44.52 32.8696 44.3704M32.5201 44.9944L32.8696 44.3704M32.8696 44.3704C33.1697 43.8452 33.4822 43.2826 33.8069 42.6957C34.2553 41.8986 34.592 41.2875 34.9282 40.6775C34.9354 40.6677 34.9402 40.6584 34.9434 40.6514C34.9468 40.6439 34.9495 40.6364 34.9511 40.6316L34.9531 40.6296L34.9629 40.6198L34.9696 40.6078C35.4815 39.6954 35.9735 38.7929 36.4455 37.9272C36.5041 37.8196 36.5625 37.7125 36.6206 37.6061L36.6206 37.606C39.2089 32.8546 41.3102 28.8396 42.8491 25.6493C44.2989 22.6621 45.3152 20.2798 45.6932 18.9449C45.8316 18.4916 45.8848 18.131 45.8848 18.0165C45.8848 11.6254 42.1227 5.94968 36.2957 3.55845L36.2949 3.55812C36.0077 3.44326 35.7903 3.22585 35.6754 2.93869C35.5589 2.64737 35.5489 2.33797 35.6741 2.0534L35.6742 2.05343L35.6756 2.04984C35.8473 1.61485 36.2717 1.33796 36.7453 1.33796C36.8927 1.33796 37.0422 1.37203 37.182 1.43029L37.1824 1.43048C38.7858 2.08924 40.2777 2.98429 41.6333 4.07861C42.9759 5.17261 44.1444 6.45305 45.1141 7.89517L45.1142 7.89531C47.1285 10.8794 48.1978 14.3731 48.1978 18.004C48.1978 18.5021 48.0886 18.9911 47.9266 19.5769C47.765 20.1235 47.5411 20.7705 47.242 21.5307L47.2419 21.5309C46.7058 22.9025 45.9445 24.5751 44.9445 26.6625C43.3826 29.8738 41.2705 33.9355 38.658 38.7105L38.658 38.7106C38.1344 39.6704 37.5736 40.6923 37.0004 41.7267C36.9882 41.7423 36.9816 41.7571 36.9775 41.7673C36.9739 41.7763 36.9728 41.7798 36.9711 41.7837C36.9704 41.7854 36.9696 41.7871 36.9684 41.7894L36.9569 41.8125C36.7698 42.1493 36.5796 42.4892 36.3892 42.8293L36.3876 42.8322C36.1976 43.1717 36.0075 43.5113 35.8206 43.8479C35.5328 44.3484 35.2326 44.8863 34.8703 45.5359L32.8696 44.3704ZM29.7374 50.9894C29.4688 50.5416 28.5348 48.9721 27.2301 46.7231L34.8701 45.5362L34.7577 45.7359L34.7571 45.7371C34.72 45.8051 34.6798 45.8763 34.6391 45.9483C34.5989 46.0195 34.5582 46.0914 34.5205 46.1604L34.4841 46.2211C34.3704 46.4106 34.2695 46.5998 34.1699 46.7865C34.1699 46.7866 34.1698 46.7867 34.1697 46.7868L34.0834 46.9348L34.0827 46.936C33.4018 48.1396 32.8299 49.1364 32.4158 49.8582C32.0855 50.4338 31.8556 50.8345 31.7509 51.0255L31.7501 51.0263L31.7487 51.0277L31.7485 51.0279L31.7484 51.028L31.7482 51.0282L31.7479 51.0285L31.7473 51.0292L31.7461 51.0304L31.7442 51.0325C31.739 51.0392 31.7344 51.0464 31.7577 51.0634L31.7324 51.049C31.5514 51.3658 31.1732 51.5862 30.7565 51.5862C30.3468 51.5862 29.971 51.3726 29.7624 51.035C29.7623 51.0347 29.7622 51.0344 29.7621 51.0341C29.7574 51.0201 29.7497 51.0045 29.7374 50.9894ZM36.2577 3.65097C35.9451 3.52595 35.7076 3.28839 35.5826 2.97583C35.4575 2.66326 35.445 2.32569 35.5826 2.01312C35.7701 1.53802 36.2327 1.23796 36.7453 1.23796C36.9079 1.23796 37.0704 1.27546 37.2204 1.33798C38.8333 2.00062 40.3336 2.90081 41.6964 4.00105C43.0467 5.10128 44.2219 6.38906 45.1971 7.83937L36.2577 3.65097ZM34.8824 40.5589C35.394 39.647 35.8857 38.745 36.3577 37.8793C36.4164 37.7717 36.4747 37.6646 36.5328 37.5582L34.8824 40.5589ZM30.6565 2.42573C30.347 2.42573 30.0595 2.29987 29.8395 2.07994C29.6214 1.86183 29.5063 1.575 29.5063 1.26296C29.5063 0.630544 30.0241 0.112695 30.6565 0.112695C30.9686 0.112695 31.2554 0.227876 31.4735 0.445983C31.6916 0.664091 31.8068 0.95092 31.8068 1.26296C31.8068 1.90853 31.2883 2.42573 30.6565 2.42573Z" fill="#14282F" stroke="white" stroke-width="0.2"/>
<path d="M27.4083 26.5762L27.4077 26.576C26.2321 26.081 25.1677 25.3632 24.2642 24.4597C23.36 23.5431 22.6423 22.491 22.1474 21.3157L22.1473 21.3155C21.6275 20.0902 21.3676 18.8032 21.3676 17.4662C21.3676 16.129 21.6276 14.8297 22.1472 13.6173L22.1474 13.6167C22.6424 12.441 23.3602 11.3767 24.2637 10.4732C25.1803 9.56895 26.2324 8.85124 27.4077 8.35639L27.4079 8.35629C28.6332 7.83647 29.9202 7.57656 31.2572 7.57656C32.5944 7.57656 33.8937 7.83654 35.1061 8.35615L35.1067 8.35639C36.2825 8.85144 37.3469 9.56928 38.2505 10.4729C39.1541 11.3765 39.872 12.4409 40.367 13.6167L40.3671 13.6169C40.8869 14.8422 41.1468 16.1292 41.1468 17.4662C41.1468 18.8034 40.8869 20.1027 40.3673 21.3151L40.367 21.3157C39.872 22.4914 39.1542 23.5557 38.2507 24.4593C37.3341 25.3634 36.2821 26.0811 35.1069 26.5759C33.8935 27.0836 32.5938 27.3558 31.2572 27.3558C29.92 27.3558 28.6207 27.0959 27.4083 26.5762ZM31.2578 9.83959H31.2572C29.2301 9.83959 27.3168 10.6379 25.8854 12.0693C24.4539 13.5008 23.6556 15.4141 23.6556 17.4412C23.6556 19.4683 24.4539 21.3816 25.8854 22.813C27.3168 24.2445 29.2301 25.0428 31.2572 25.0428C33.2843 25.0428 35.1976 24.2445 36.6291 22.813L36.6294 22.8127C38.0603 21.3691 38.8588 19.4686 38.8588 17.4412C38.8588 15.4141 38.0605 13.5008 36.6291 12.0693C35.1973 10.6376 33.2841 9.85225 31.2578 9.83959Z" fill="#14282F" stroke="white" stroke-width="0.2"/>
<path d="M3.81328 28.1836L3.79936 28.1583L3.77411 28.1444L1.19916 26.7194C1.19907 26.7193 1.19897 26.7193 1.19888 26.7192C0.829424 26.5113 0.6 26.1315 0.6 25.7063C0.6 25.2812 0.829322 24.9015 1.19863 24.6935L3.78611 23.281L3.81189 23.267L3.82596 23.2412L5.23845 20.6537C5.44643 20.2844 5.82612 20.0551 6.25123 20.0551C6.67633 20.0551 7.05603 20.2844 7.264 20.6537C7.2641 20.6539 7.2642 20.6541 7.2643 20.6542L8.67649 23.2412L8.69057 23.267L8.71635 23.281L11.3033 24.6932C11.3035 24.6933 11.3036 24.6934 11.3038 24.6935C11.6731 24.9015 11.9025 25.2812 11.9025 25.7063C11.9025 26.1195 11.6726 26.5114 11.3038 26.7191C11.3036 26.7192 11.3035 26.7193 11.3033 26.7194L8.71635 28.1316L8.69057 28.1456L8.67649 28.1714L7.26369 30.7595L7.26367 30.7595C7.05561 31.1409 6.67613 31.37 6.25123 31.37C5.82606 31.37 5.44632 31.1406 5.23836 30.7712C5.23829 30.7711 5.23822 30.771 5.23815 30.7709L3.81328 28.1836ZM4.30277 25.6186L4.14272 25.7063L4.30277 25.794L5.21546 26.2941L5.21546 26.2941L5.21673 26.2948C5.41155 26.3979 5.5721 26.5585 5.67524 26.7533L5.67523 26.7533L5.67593 26.7546L6.17603 27.6673L6.26373 27.8273L6.35143 27.6673L6.85099 26.7555C6.85108 26.7554 6.85116 26.7552 6.85125 26.7551C6.95593 26.5692 7.11789 26.3969 7.31073 26.2948L7.31074 26.2948L7.312 26.2941L8.22469 25.794L8.38474 25.7063L8.22469 25.6186L7.312 25.1185L7.312 25.1185L7.31073 25.1178C7.11591 25.0147 6.95536 24.8541 6.85221 24.6593L6.85222 24.6593L6.85153 24.658L6.35143 23.7453L6.26373 23.5853L6.17603 23.7453L5.67647 24.6571C5.67638 24.6572 5.67629 24.6574 5.6762 24.6575C5.57152 24.8434 5.40957 25.0157 5.21673 25.1178L5.21672 25.1178L5.21546 25.1185L4.30277 25.6186Z" fill="#14282F" stroke="white" stroke-width="0.2"/>
<path d="M51.824 36.9351L51.8099 36.9093L51.7842 36.8952L49.1972 35.4831C49.197 35.483 49.1969 35.4829 49.1967 35.4828C48.8274 35.2748 48.598 34.8951 48.598 34.47C48.598 34.0449 48.8274 33.6652 49.1967 33.4572L51.7842 32.0447L51.8099 32.0306L51.824 32.0049L53.2365 29.4174C53.4445 29.0481 53.8242 28.8188 54.2493 28.8188C54.6744 28.8188 55.0541 29.0481 55.2621 29.4174C55.2622 29.4176 55.2623 29.4177 55.2624 29.4179L56.6745 32.0049L56.6886 32.0306L56.7144 32.0447L59.3013 33.4569C59.3015 33.457 59.3017 33.4571 59.3018 33.4572C59.6712 33.6652 59.9005 34.0449 59.9005 34.47C59.9005 34.8831 59.6707 35.2751 59.3018 35.4828C59.3017 35.4829 59.3015 35.483 59.3013 35.4831L56.7144 36.8952L56.6886 36.9093L56.6745 36.9351L55.2617 39.5231L55.2612 39.5241C55.0666 39.8905 54.6761 40.1212 54.2493 40.1212C53.8361 40.1212 53.4442 39.8914 53.2365 39.5226C53.2364 39.5224 53.2363 39.5222 53.2362 39.522L51.824 36.9351ZM52.3008 34.3698L52.1408 34.4575L52.3008 34.5452L53.2135 35.0453L53.2135 35.0453L53.2148 35.046C53.4096 35.1491 53.5701 35.3096 53.6733 35.5045L53.6733 35.5045L53.674 35.5057L54.1741 36.4184L54.2618 36.5785L54.3495 36.4184L54.849 35.5067C54.8491 35.5066 54.8492 35.5064 54.8493 35.5063C54.954 35.3204 55.1159 35.1481 55.3088 35.046L55.3088 35.046L55.31 35.0453L56.2227 34.5452L56.3828 34.4575L56.2227 34.3698L55.31 33.8697L55.31 33.8697L55.3088 33.869C55.114 33.7658 54.9534 33.6053 54.8503 33.4105L54.8503 33.4105L54.8496 33.4092L54.3495 32.4965L54.2618 32.3365L54.1741 32.4965L53.6745 33.4082C53.6744 33.4084 53.6743 33.4085 53.6742 33.4087C53.5696 33.5946 53.4076 33.7669 53.2148 33.869L53.2148 33.869L53.2135 33.8697L52.3008 34.3698Z" fill="#14282F" stroke="white" stroke-width="0.2"/>
</g>
</svg>
