<svg width="46" height="55" viewBox="0 0 46 55" fill="none" xmlns="http://www.w3.org/2000/svg">
<g opacity="0.5">
<mask id="path-1-inside-1" fill="white">
<path d="M43.9098 55V48.0333L44.0013 47.9417L45.099 46.8417C46.1968 45.7417 46.1968 44 45.099 42.9917L43.9098 41.8V39.4167C43.9098 35.2 41.074 31.5333 36.9574 30.525L30.7369 28.9667C32.109 27.775 32.8409 26.0333 32.8409 24.2V23.375L36.0426 21.45C36.8659 20.9917 37.4148 20.075 37.4148 19.0667V17.7833C37.4148 16.225 36.2256 15.0333 34.6704 15.0333C34.4875 15.0333 34.3045 15.0333 34.1216 15.125L33.1153 15.3083L34.396 9.9C35.1278 6.6 33.2068 3.20833 29.9135 2.29167L21.9549 0L13.9048 2.29167C10.6115 3.20833 8.69048 6.6 9.42231 9.9L10.703 15.3083L9.69675 15.125C8.23309 14.85 6.76943 15.7667 6.49499 17.325C6.49499 17.5083 6.40351 17.6917 6.40351 17.875V19.1583C6.40351 20.1667 6.95238 20.9917 7.77569 21.5417L10.9774 23.4667V24.2917C10.9774 26.125 11.8008 27.8667 13.0815 29.0583L6.86091 30.6167C2.83584 31.5333 0 35.2 0 39.4167V55H43.9098ZM31.1028 52.1583C31.1028 51.8833 31.1943 51.6083 31.3772 51.425L37.5063 45.2833L38.9699 46.75L32.8409 52.8917C32.475 53.2583 31.8346 53.2583 31.3772 52.8917C31.1943 52.7083 31.1028 52.4333 31.1028 52.1583ZM42.0802 53.1667H35.1278L40.2506 48.0333C40.708 48.4917 41.4399 48.7667 42.0802 48.7667V53.1667ZM43.8183 45.5583L42.7206 46.6583C42.3547 47.025 41.8058 47.025 41.4399 46.6583L36.683 41.8917C36.3171 41.525 36.3171 40.975 36.683 40.6083L37.7807 39.5083C38.1466 39.1417 38.6955 39.1417 39.0614 39.5083L43.8183 44.275C44.1842 44.6417 44.1842 45.1917 43.8183 45.5583ZM31.1028 22.55L29.2732 24.6583C28.084 26.0333 26.0714 26.2167 24.6993 25.025C24.5163 24.8417 24.3333 24.6583 24.1504 24.475C23.2356 23.2833 21.589 22.9167 20.3083 23.8333C20.0338 24.0167 19.8509 24.2 19.6679 24.475C18.6617 25.9417 16.5577 26.3083 15.1855 25.2083C15.0025 25.025 14.8196 24.8417 14.6366 24.6583L12.807 22.55V15.7667C12.807 13.2 14.8196 11.1833 17.381 11.1833C17.6554 11.1833 17.9298 11.1833 18.2043 11.275L20.8572 11.7333C21.589 11.9167 22.4123 11.9167 23.1441 11.7333L25.797 11.275C28.2669 10.8167 30.6454 12.4667 31.1028 14.9417C31.1943 15.2167 31.1943 15.4917 31.1943 15.7667L31.1028 22.55ZM13.2644 25.85C14.1792 26.95 15.6429 27.5917 17.1065 27.5917C17.198 27.5917 17.2895 27.5917 17.381 27.5917C18.9361 27.5 20.3998 26.7667 21.3145 25.4833C21.589 25.1167 22.2293 25.025 22.5952 25.3C22.6867 25.3917 22.6867 25.3917 22.7782 25.4833C24.4248 27.775 27.5351 28.325 29.8221 26.675C30.188 26.4 30.4624 26.125 30.7369 25.85L30.9198 25.6667C30.5539 26.7667 29.8221 27.6833 28.8158 28.2333L24.6993 30.525C23.0526 31.4417 21.0401 31.4417 19.485 30.525L15.3684 28.2333C14.3622 27.6833 13.6303 26.7667 13.2644 25.6667V25.85ZM18.4787 32.0833C20.6742 33.275 23.3271 33.275 25.5226 32.0833L28.084 30.7083L27.8095 31.9917C27.0777 35.2 23.9674 37.2167 20.7657 36.4833C18.4787 36.025 16.7406 34.1917 16.2832 31.9917L16.0088 30.7083L18.4787 32.0833ZM34.579 16.9583C35.0364 16.8667 35.5852 17.1417 35.6767 17.6917C35.6767 17.7833 35.6767 17.7833 35.6767 17.875V19.1583C35.6767 19.525 35.4938 19.8 35.2193 19.9833L32.9323 21.2667V17.2333L34.579 16.9583ZM14.4536 4.03333L21.9549 1.83333L29.4562 4.03333C31.8346 4.675 33.2068 7.05833 32.6579 9.44167L32.0176 12.4667C30.6454 10.175 27.9925 8.98333 25.4311 9.44167L22.7782 9.9C22.2293 9.99167 21.6805 9.99167 21.1316 9.9L18.4787 9.44167C15.8258 8.98333 13.2644 10.175 11.8922 12.4667L11.2519 9.53333C10.703 7.05833 12.0752 4.675 14.4536 4.03333ZM8.69048 19.8917C8.41604 19.7083 8.23309 19.4333 8.23309 19.0667V17.7833C8.23309 17.2333 8.599 16.8667 9.14787 16.8667C9.23935 16.8667 9.23935 16.8667 9.33083 16.8667L10.9774 17.2333V21.2667L8.69048 19.8917ZM1.82957 39.4167C1.82957 36.025 4.11654 33.0917 7.40978 32.2667L13.9962 30.6167L14.3622 32.3583C15.2769 36.575 19.3935 39.2333 23.6015 38.225C26.5288 37.5833 28.8158 35.2917 29.4562 32.3583L29.8221 30.6167L36.4085 32.2667C39.7018 33.0917 41.9887 36.025 41.9887 39.4167V39.9667L40.2506 38.225C39.1529 37.125 37.4148 37.125 36.4085 38.225L35.3108 39.325C34.213 40.425 34.213 42.1667 35.3108 43.175L36.1341 44L30.005 50.1417C29.1817 50.9667 28.9073 52.1583 29.3647 53.1667H11.8922V41.25H10.0627V53.1667H1.82957V39.4167Z"/>
</mask>
<path d="M43.9098 55V48.0333L44.0013 47.9417L45.099 46.8417C46.1968 45.7417 46.1968 44 45.099 42.9917L43.9098 41.8V39.4167C43.9098 35.2 41.074 31.5333 36.9574 30.525L30.7369 28.9667C32.109 27.775 32.8409 26.0333 32.8409 24.2V23.375L36.0426 21.45C36.8659 20.9917 37.4148 20.075 37.4148 19.0667V17.7833C37.4148 16.225 36.2256 15.0333 34.6704 15.0333C34.4875 15.0333 34.3045 15.0333 34.1216 15.125L33.1153 15.3083L34.396 9.9C35.1278 6.6 33.2068 3.20833 29.9135 2.29167L21.9549 0L13.9048 2.29167C10.6115 3.20833 8.69048 6.6 9.42231 9.9L10.703 15.3083L9.69675 15.125C8.23309 14.85 6.76943 15.7667 6.49499 17.325C6.49499 17.5083 6.40351 17.6917 6.40351 17.875V19.1583C6.40351 20.1667 6.95238 20.9917 7.77569 21.5417L10.9774 23.4667V24.2917C10.9774 26.125 11.8008 27.8667 13.0815 29.0583L6.86091 30.6167C2.83584 31.5333 0 35.2 0 39.4167V55H43.9098ZM31.1028 52.1583C31.1028 51.8833 31.1943 51.6083 31.3772 51.425L37.5063 45.2833L38.9699 46.75L32.8409 52.8917C32.475 53.2583 31.8346 53.2583 31.3772 52.8917C31.1943 52.7083 31.1028 52.4333 31.1028 52.1583ZM42.0802 53.1667H35.1278L40.2506 48.0333C40.708 48.4917 41.4399 48.7667 42.0802 48.7667V53.1667ZM43.8183 45.5583L42.7206 46.6583C42.3547 47.025 41.8058 47.025 41.4399 46.6583L36.683 41.8917C36.3171 41.525 36.3171 40.975 36.683 40.6083L37.7807 39.5083C38.1466 39.1417 38.6955 39.1417 39.0614 39.5083L43.8183 44.275C44.1842 44.6417 44.1842 45.1917 43.8183 45.5583ZM31.1028 22.55L29.2732 24.6583C28.084 26.0333 26.0714 26.2167 24.6993 25.025C24.5163 24.8417 24.3333 24.6583 24.1504 24.475C23.2356 23.2833 21.589 22.9167 20.3083 23.8333C20.0338 24.0167 19.8509 24.2 19.6679 24.475C18.6617 25.9417 16.5577 26.3083 15.1855 25.2083C15.0025 25.025 14.8196 24.8417 14.6366 24.6583L12.807 22.55V15.7667C12.807 13.2 14.8196 11.1833 17.381 11.1833C17.6554 11.1833 17.9298 11.1833 18.2043 11.275L20.8572 11.7333C21.589 11.9167 22.4123 11.9167 23.1441 11.7333L25.797 11.275C28.2669 10.8167 30.6454 12.4667 31.1028 14.9417C31.1943 15.2167 31.1943 15.4917 31.1943 15.7667L31.1028 22.55ZM13.2644 25.85C14.1792 26.95 15.6429 27.5917 17.1065 27.5917C17.198 27.5917 17.2895 27.5917 17.381 27.5917C18.9361 27.5 20.3998 26.7667 21.3145 25.4833C21.589 25.1167 22.2293 25.025 22.5952 25.3C22.6867 25.3917 22.6867 25.3917 22.7782 25.4833C24.4248 27.775 27.5351 28.325 29.8221 26.675C30.188 26.4 30.4624 26.125 30.7369 25.85L30.9198 25.6667C30.5539 26.7667 29.8221 27.6833 28.8158 28.2333L24.6993 30.525C23.0526 31.4417 21.0401 31.4417 19.485 30.525L15.3684 28.2333C14.3622 27.6833 13.6303 26.7667 13.2644 25.6667V25.85ZM18.4787 32.0833C20.6742 33.275 23.3271 33.275 25.5226 32.0833L28.084 30.7083L27.8095 31.9917C27.0777 35.2 23.9674 37.2167 20.7657 36.4833C18.4787 36.025 16.7406 34.1917 16.2832 31.9917L16.0088 30.7083L18.4787 32.0833ZM34.579 16.9583C35.0364 16.8667 35.5852 17.1417 35.6767 17.6917C35.6767 17.7833 35.6767 17.7833 35.6767 17.875V19.1583C35.6767 19.525 35.4938 19.8 35.2193 19.9833L32.9323 21.2667V17.2333L34.579 16.9583ZM14.4536 4.03333L21.9549 1.83333L29.4562 4.03333C31.8346 4.675 33.2068 7.05833 32.6579 9.44167L32.0176 12.4667C30.6454 10.175 27.9925 8.98333 25.4311 9.44167L22.7782 9.9C22.2293 9.99167 21.6805 9.99167 21.1316 9.9L18.4787 9.44167C15.8258 8.98333 13.2644 10.175 11.8922 12.4667L11.2519 9.53333C10.703 7.05833 12.0752 4.675 14.4536 4.03333ZM8.69048 19.8917C8.41604 19.7083 8.23309 19.4333 8.23309 19.0667V17.7833C8.23309 17.2333 8.599 16.8667 9.14787 16.8667C9.23935 16.8667 9.23935 16.8667 9.33083 16.8667L10.9774 17.2333V21.2667L8.69048 19.8917ZM1.82957 39.4167C1.82957 36.025 4.11654 33.0917 7.40978 32.2667L13.9962 30.6167L14.3622 32.3583C15.2769 36.575 19.3935 39.2333 23.6015 38.225C26.5288 37.5833 28.8158 35.2917 29.4562 32.3583L29.8221 30.6167L36.4085 32.2667C39.7018 33.0917 41.9887 36.025 41.9887 39.4167V39.9667L40.2506 38.225C39.1529 37.125 37.4148 37.125 36.4085 38.225L35.3108 39.325C34.213 40.425 34.213 42.1667 35.3108 43.175L36.1341 44L30.005 50.1417C29.1817 50.9667 28.9073 52.1583 29.3647 53.1667H11.8922V41.25H10.0627V53.1667H1.82957V39.4167Z" fill="#14282F" stroke="white" stroke-width="0.2" mask="url(#path-1-inside-1)"/>
<path d="M26.2189 49.1894L26.2189 49.1894L26.2182 49.1901L24.1332 51.3702L17.4819 50.0192L21.6243 45.8683L22.2646 45.2267L29.0341 38.4433C29.5729 37.9033 30.2918 37.633 31.0112 37.633C31.7306 37.633 32.4494 37.9033 32.9883 38.4433C34.0666 39.5238 34.0666 41.3255 32.9883 42.406L26.2189 49.1894ZM31.7784 39.656L31.7786 39.6558L31.7743 39.6523C31.301 39.2729 30.6313 39.2679 30.244 39.656L24.1149 45.7977L24.0796 45.833L24.1149 45.8683L25.5786 47.335L25.6139 47.3705L25.6493 47.335L31.7784 41.1933C31.9729 40.9985 32.0675 40.7096 32.0675 40.4247C32.0675 40.1398 31.9729 39.8509 31.7784 39.656ZM21.0046 48.9144L20.9376 48.9815L21.0309 48.9988L23.5008 49.4572L23.5267 49.462L23.5453 49.4433L24.3686 48.6183L24.4039 48.583L24.3686 48.5477L22.905 47.081L22.8696 47.0456L22.8342 47.081L21.0046 48.9144Z" fill="#14282F" stroke="white" stroke-width="0.1"/>
</g>
</svg>
