<svg width="55" height="55" viewBox="0 0 55 55" fill="none" xmlns="http://www.w3.org/2000/svg">
<g opacity="0.5">
<path d="M48.125 40.3906H41.25V6.875C41.25 2.87891 38.3711 0 34.375 0H7.30469C3.13672 0 0 2.96484 0 6.875C0 10.7852 3.13672 13.75 7.30469 13.75H12.0312V47.6953C12.0312 51.7344 15.2969 55 19.3359 55H47.2656C51.9492 55 55 52.0781 55 47.6094C55 43.4414 52.1641 40.4766 48.125 40.3906ZM44.7734 42.1094C44.4297 42.625 44.2578 43.2266 44.2578 43.8281C44.2578 44.4297 44.3867 45.0312 44.6445 45.5469H41.25V42.1094H44.7734ZM1.71875 6.875C1.71875 3.95312 4.125 1.71875 7.30469 1.71875H29.5625C28.2734 2.92188 27.5 4.68359 27.5 6.875C27.457 8.80859 28.2734 10.6992 29.6914 12.0312H7.30469C4.125 12.0312 1.71875 9.79688 1.71875 6.875ZM34.375 12.0312C31.9258 12.0312 30.0781 10.6992 29.4766 8.59375H34.375C35.2773 8.55078 36.0508 9.19531 36.0938 10.0977C36.0938 10.1836 36.0938 10.2266 36.0938 10.3125C36.1367 11.2148 35.4492 11.9883 34.5469 12.0312C34.5039 12.0312 34.418 12.0312 34.375 12.0312ZM19.3359 53.2812C16.2422 53.2812 13.75 50.7891 13.75 47.6953V13.75H34.375C36.2227 13.793 37.7695 12.375 37.8125 10.5273C37.8125 10.4414 37.8125 10.3984 37.8125 10.3125C37.8555 8.46484 36.4375 6.91797 34.5898 6.875C34.5039 6.875 34.4609 6.875 34.375 6.875H29.2188C29.2188 3.65234 31.1523 1.71875 34.375 1.71875C37.4688 1.71875 39.5312 3.78125 39.5312 6.875V46.8359C39.5742 46.9648 39.5742 47.1367 39.5312 47.2656C39.5312 49.8867 40.4336 51.9492 42.0234 53.2812H19.3359ZM47.2656 53.2812C43.4414 53.2812 41.25 51.0898 41.25 47.2656H47.6953C48.168 47.2656 48.5547 46.8789 48.5547 46.4062C48.5547 45.9336 48.168 45.5469 47.6953 45.5469C46.8359 45.6328 46.0625 44.9883 45.9766 44.1289C45.9766 44.043 45.9766 43.957 45.9766 43.8281C45.9766 42.7539 47.0508 42.1094 48.125 42.1094C51.6914 42.1953 53.2812 44.9023 53.2812 47.6094C53.2812 51.1758 51.0469 53.2812 47.2656 53.2812Z" fill="#14282F"/>
<path d="M26.6406 22.7734C24.1914 22.7734 22.2578 24.75 22.2578 27.1992C22.2578 29.6484 24.2344 31.582 26.6836 31.582C29.1328 31.582 31.0664 29.6055 31.0664 27.1992C31.0664 24.75 29.0898 22.7734 26.6406 22.7734ZM26.6406 29.8633C25.1367 29.8633 23.9336 28.6602 23.9336 27.1563C23.9336 25.6523 25.1367 24.4492 26.6406 24.4492C28.1445 24.4492 29.3477 25.6523 29.3477 27.1563C29.3477 28.6602 28.1445 29.8633 26.6406 29.8633Z" fill="#14282F"/>
<path d="M35.1479 24.1484L34.5463 23.7187C34.3744 23.5898 34.2885 23.4179 34.3315 23.2031L34.3744 22.4726C34.5033 21.2265 33.558 20.1093 32.3119 20.0234C32.269 20.0234 32.269 20.0234 32.226 20.0234L31.4955 19.9804C31.2807 19.9804 31.1088 19.8515 31.0229 19.6796L30.6791 19.0351C30.0776 17.9179 28.7026 17.4882 27.5854 18.0898L27.5424 18.1328L26.8979 18.4765C26.726 18.5624 26.5112 18.5624 26.3393 18.4765L25.6948 18.1328C24.6205 17.5312 23.2026 17.9179 22.601 18.9921L22.558 19.0351L22.2143 19.6796C22.1284 19.8515 21.9565 19.9804 21.7416 19.9804L21.0112 20.0234C19.7651 20.1093 18.7768 21.1406 18.8627 22.4296C18.8627 22.4726 18.8627 22.4726 18.8627 22.5156L18.9487 23.246C18.9487 23.4609 18.8627 23.6328 18.7338 23.7617L18.1323 24.1913C17.101 24.9218 16.8862 26.3398 17.6166 27.371L17.6596 27.414L18.1323 28.0156C18.2612 28.1874 18.2612 28.3593 18.2182 28.5742L17.9174 29.2187C17.4448 30.3788 18.0463 31.7109 19.2065 32.1835C19.2065 32.1835 19.2494 32.1835 19.2494 32.2265L19.9369 32.4843C20.1088 32.5703 20.2807 32.6992 20.2807 32.914L20.3666 33.3437L18.6479 38.9296C18.519 39.4023 18.7768 39.8749 19.2065 40.0038C19.3784 40.0468 19.5502 40.0468 19.7221 40.0038L21.9565 39.3163L23.3744 41.207C23.5463 41.4218 23.8041 41.5507 24.0619 41.5507H24.1909C24.4916 41.5078 24.7924 41.2499 24.8784 40.9492L26.2963 36.5234C26.5112 36.5663 26.726 36.5663 26.9409 36.5234L28.3588 40.9062C28.4448 41.207 28.7026 41.4218 29.0463 41.5078H29.1752C29.433 41.5078 29.6909 41.3788 29.8627 41.164L31.2807 39.2734L33.5151 40.0038C33.9877 40.1328 34.4604 39.8749 34.5893 39.4453C34.6323 39.2734 34.6323 39.1015 34.5893 38.9296L32.8276 33.5156L32.9565 32.871C32.9994 32.6562 33.1283 32.5273 33.3002 32.4413L33.9877 32.1835C35.1908 31.7538 35.7924 30.4648 35.3627 29.2617C35.3627 29.2187 35.3627 29.2187 35.3198 29.1757L35.0619 28.4882C34.976 28.3163 35.019 28.1015 35.1479 27.9296L35.6205 27.3281C36.394 26.3398 36.2221 24.9218 35.1909 24.1484C35.1909 24.1913 35.1909 24.1913 35.1479 24.1484ZM23.8041 38.7578L23.0737 37.7265C22.8588 37.4257 22.4721 37.2968 22.1284 37.4257L20.8393 37.8124L21.6557 35.1054C22.1284 35.3632 22.6869 35.4492 23.2455 35.3203L23.976 35.1484C24.1479 35.1054 24.3627 35.1484 24.4916 35.3203L24.7494 35.621L23.8041 38.7578ZM31.1518 37.4687C30.808 37.3398 30.4213 37.4687 30.2065 37.7695L29.433 38.8007L28.4448 35.707L28.7885 35.3632C28.9174 35.2343 29.1323 35.1484 29.3041 35.1913L30.0346 35.3632C30.5502 35.4921 31.0659 35.4062 31.5385 35.1913L32.3979 37.8554L31.1518 37.4687ZM34.2455 26.3828L33.7729 26.9843C33.3002 27.6288 33.1713 28.4453 33.4721 29.2187L33.7299 29.9062C33.8588 30.207 33.6869 30.5078 33.4291 30.6367L32.7416 30.8945C31.9682 31.1523 31.4526 31.7968 31.2807 32.5703L31.1518 33.3007C31.1088 33.4296 31.0229 33.5585 30.894 33.6445C30.7651 33.7304 30.5932 33.7734 30.4643 33.7304L29.6909 33.5156C28.9174 33.3437 28.101 33.5585 27.5424 34.1601L27.0268 34.6757C26.8119 34.8906 26.4682 34.8906 26.2104 34.6757L25.6948 34.1601C25.2651 33.7304 24.6635 33.4726 24.019 33.4726C23.8471 33.4726 23.6752 33.4726 23.5034 33.5156L22.7729 33.6874C22.4721 33.7734 22.1713 33.5585 22.0854 33.2578L21.9565 32.5273C21.7846 31.7538 21.226 31.1093 20.4955 30.8515L19.808 30.5937C19.5073 30.5078 19.3784 30.164 19.4643 29.8632L19.7221 29.1757C20.0229 28.4453 19.894 27.5859 19.4213 26.9413L18.9487 26.3398C18.7768 26.082 18.8198 25.7382 19.0346 25.5663L19.6362 25.1367C20.2807 24.664 20.6244 23.8906 20.5815 23.0742L20.6244 22.3437C20.5815 22.0429 20.8393 21.7851 21.1401 21.7421L21.8705 21.6992C22.6869 21.6562 23.3744 21.1835 23.7612 20.496L24.1049 19.8515C24.2338 19.5937 24.5776 19.4648 24.8784 19.6367L25.5229 19.9804C26.2104 20.3671 27.0698 20.3671 27.7573 19.9804L28.4018 19.6367C28.6596 19.4648 29.0034 19.5937 29.1752 19.8515L29.519 20.496C29.9057 21.1835 30.5932 21.6562 31.4096 21.6992L32.1401 21.7421C32.4409 21.7851 32.6557 22.0429 32.6127 22.3437L32.5268 23.0742C32.4408 23.8906 32.8276 24.664 33.4721 25.1367L34.0737 25.5663C34.3744 25.7382 34.4174 26.082 34.2455 26.3828C34.2455 26.3398 34.2455 26.3398 34.2455 26.3828Z" fill="#14282F"/>
</g>
</svg>
