<svg width="60" height="60" viewBox="0 0 60 60" fill="none" xmlns="http://www.w3.org/2000/svg">
<g opacity="0.5">
<path d="M30 0C13.4 0 0 13.4 0 30C0 46.6 13.4 60 30 60C46.6 60 60 46.6 60 30C60 13.4 46.6 0 30 0ZM31.9 2.1C30.2 5.4 29.8 9.3 30.8 12.8C31 13.5 31.3 14.2 31.6 14.8C32.2 16.3 32.8 17.5 32.4 18.9C32.2 19.4 32 19.9 31.6 20.3C31.7 19.8 31.7 19.3 31.6 18.9C31.3 16.9 29.9 15.6 28.6 14.5C28.1 14.1 27.7 13.7 27.2 13.2C24.9 10.6 23.3 5.8 24.8 2.5C26.6 2.2 28.3 2 30 2C30.7 2 31.3 2 31.9 2.1ZM25.3 43.6C28.2 45.4 31.8 45.4 34.7 43.6C35 44.7 35.3 45.9 35.5 47C32 48.2 28.1 48.2 24.6 47C24.7 45.9 25 44.8 25.3 43.6ZM34.6 41.2C34.5 41.2 34.5 41.2 34.6 41.2C32 43.6 28.1 43.6 25.5 41.2C25.5 41.2 25.5 41.2 25.4 41.2C24.5 40.3 24 39.1 24 37.9C24 35.1 27 29.2 30 24.4C33 29.2 36 35.2 36 37.9C36 39.1 35.5 40.3 34.6 41.2ZM2 30C2 17.4 10.4 6.3 22.6 3C21.6 6.9 23.3 11.7 25.8 14.5C26.3 15 26.8 15.5 27.3 15.9C28.4 16.9 29.4 17.8 29.6 19.1C29.6 20.3 29.3 21.5 28.7 22.5C28.7 22.5 28.6 22.6 28.6 22.7C26.6 26 22 33.9 22 37.9C22 39.5 22.6 41 23.7 42.2C22.5 46 22 50 22 54C22 54.9 22 55.9 22.1 56.9C10.2 53.3 2 42.4 2 30ZM24.1 57.4C24.1 56.2 24 55.1 24 54C24 52.4 24.1 50.7 24.3 49.1C28 50.3 32 50.3 35.8 49.1C36 50.7 36.1 52.4 36.1 54C36.1 55.1 36 56.2 36 57.4C32 58.2 28 58.2 24.1 57.4ZM37.9 56.9C38 55.9 38 55 38 54C38 50 37.5 46 36.3 42.2C37.4 41 38 39.5 38 37.9C38 34 33.7 26.5 31.6 23.1C32.9 22.2 33.8 21 34.4 19.5C35 17.5 34.2 15.6 33.5 14.1C33.2 13.5 33 12.9 32.8 12.3C31.9 8.9 32.4 5.3 34.2 2.4C47.1 4.3 57 15 57.9 28.1C58.8 41.2 50.5 53.2 37.9 56.9Z" fill="#14282F"/>
</g>
</svg>
