<svg width="60" height="60" viewBox="0 0 60 60" fill="none" xmlns="http://www.w3.org/2000/svg">
<g opacity="0.5">
<mask id="path-1-inside-1" fill="white">
<path d="M30.0064 59.9503C27.4184 59.9503 24.8428 59.8503 22.3673 59.6378C19.9668 59.4377 17.6413 59.1377 15.4658 58.7626C13.3153 58.375 11.3149 57.9124 9.55204 57.3873C7.75166 56.8497 6.17632 56.237 4.83853 55.5619C3.90083 55.0743 3.11316 54.5992 2.46303 54.0866C1.75037 53.5365 1.20026 52.9613 0.775166 52.3362C0.275059 51.561 0 50.6984 0 49.8607C0 49.023 0.275059 48.1603 0.800171 47.3852C1.27527 46.685 1.91291 46.0349 2.7881 45.4097C3.58827 44.8346 4.55097 44.2845 5.66371 43.7844C6.73894 43.2968 7.9642 42.8467 9.32699 42.4216C9.70207 42.3091 10.1147 42.3841 10.4272 42.6091C10.6523 42.7717 10.8023 42.9967 10.8898 43.2468C10.9273 43.3718 10.9398 43.4968 10.9398 43.6218C10.9398 44.172 10.5773 44.6471 10.0521 44.8096C8.16424 45.3847 6.58891 46.0349 5.33864 46.735C4.18839 47.3852 3.31321 48.1103 2.87561 48.7729C2.62556 49.1605 2.50053 49.4981 2.50053 49.8607C2.50053 50.2233 2.62556 50.5608 2.87561 50.9484C3.16318 51.386 3.63828 51.8486 4.25091 52.2862C5.56369 53.2489 7.56412 54.1491 10.0396 54.9118C15.2658 56.5246 22.5423 57.4498 29.9814 57.4498H30.0189C37.1829 57.4498 44.0094 56.6246 49.223 55.1368C49.3355 55.0993 49.4481 55.0868 49.5731 55.0868C50.1232 55.0868 50.6233 55.4619 50.7733 55.9995C50.9609 56.6621 50.5733 57.3498 49.9107 57.5498C47.2351 58.3125 44.1844 58.9126 40.8462 59.3127C37.408 59.7253 33.7572 59.9378 30.0064 59.9503ZM55.3743 55.2743C54.9242 55.2743 54.5116 55.0368 54.2866 54.6492C54.1241 54.3616 54.0741 54.0241 54.1616 53.699C54.2491 53.3739 54.4616 53.1114 54.7492 52.9363C54.9367 52.8238 55.1493 52.7738 55.3743 52.7738C55.8244 52.7738 56.237 53.0114 56.4621 53.3989C56.7996 53.9991 56.5996 54.7617 55.9995 55.0993C55.8119 55.2118 55.5869 55.2743 55.3743 55.2743ZM29.3063 55.0118C27.1683 55.0118 25.0554 54.8242 23.205 54.4867C21.3296 54.1366 19.7917 53.649 18.629 53.0239C17.7038 52.5237 17.1037 52.0111 16.6911 51.3735C16.416 50.9359 16.2535 50.4233 16.2535 49.9357C16.2535 49.3481 16.466 48.8605 16.6411 48.5604C16.8536 48.1978 17.1537 47.8603 17.5412 47.5477C18.2039 47.0101 19.0541 46.5725 20.1918 46.1599C21.8172 45.5848 23.8801 45.1847 26.1306 44.9846C25.9305 44.6346 25.718 44.272 25.518 43.9344C25.2304 43.4343 24.9428 42.9217 24.6553 42.4216C23.7926 42.4716 22.9174 42.5341 22.0797 42.6091C21.7296 42.6466 21.3796 42.5216 21.1295 42.2841C20.892 42.0715 20.7544 41.784 20.7294 41.4714C20.7044 41.1338 20.8044 40.8087 21.017 40.5587C21.2295 40.3086 21.5296 40.1461 21.8672 40.1211C22.9924 40.0211 24.1552 39.9336 25.3179 39.8836C25.793 39.8585 26.2431 40.1086 26.4682 40.5212C26.8807 41.2588 27.3058 41.9965 27.7059 42.6967C28.006 43.2093 28.306 43.7469 28.6311 44.3095C28.7311 44.472 28.8187 44.6346 28.9062 44.7846L28.9562 44.8846C29.0187 44.9971 29.0812 45.0972 29.1437 45.2097L29.3188 45.5098C29.5438 45.8973 29.5438 46.3599 29.3313 46.7475C29.1187 47.1351 28.7186 47.3726 28.281 47.3852C26.4431 47.4352 24.6553 47.6352 23.1174 47.9603C21.6921 48.2603 20.4544 48.6854 19.6542 49.1355C19.1041 49.4356 18.854 49.7357 18.7915 49.8482C18.779 49.8732 18.754 49.9107 18.754 49.9357C18.754 49.9482 18.7665 49.9857 18.804 50.0357C18.829 50.0732 18.9415 50.2358 19.1916 50.4233C19.6417 50.7734 20.4294 51.1485 21.3421 51.436C23.405 52.1112 26.3056 52.4987 29.2813 52.4987H29.3188C31.3067 52.4987 33.2571 52.3362 34.9575 52.0111C36.5328 51.7236 37.9081 51.286 38.8208 50.7984C39.3709 50.5108 39.721 50.1983 39.821 50.0232C39.846 49.9732 39.871 49.9357 39.871 49.9232C39.871 49.9107 39.8585 49.8982 39.846 49.8607C39.8335 49.8232 39.7835 49.7357 39.646 49.6106C39.3959 49.3606 38.9083 49.0605 38.3457 48.8105C37.0579 48.2353 35.095 47.7727 32.957 47.5352C32.5319 47.4852 32.1694 47.2351 31.9818 46.86C31.7943 46.485 31.7943 46.0474 32.0068 45.6723L32.0318 45.6223C32.1569 45.4097 32.2694 45.1972 32.4069 44.9721C32.4194 44.9471 32.4319 44.9346 32.4444 44.9096L32.4694 44.8721C32.582 44.6846 32.682 44.4845 32.7945 44.2845C33.0821 43.7719 33.4071 43.2093 33.7322 42.6091C34.1573 41.8465 34.5199 41.2088 34.8574 40.5837C35.095 40.1586 35.5451 39.9086 36.0327 39.9461C40.1086 40.2086 43.8969 40.7337 47.2851 41.4964C50.6608 42.2591 53.4489 43.2218 55.5619 44.347C57.0872 45.1722 58.1999 46.0349 58.9501 46.9976C59.4377 47.6227 59.7628 48.2728 59.9128 48.948C59.9253 49.0355 59.9378 49.123 59.9378 49.2105C59.9378 49.4856 59.8378 49.7732 59.6752 49.9857C59.5002 50.2108 59.2502 50.3733 58.9626 50.4358C58.6 50.5108 58.2124 50.4233 57.9124 50.1983C57.6873 50.0232 57.5248 49.7732 57.4623 49.4981C57.3998 49.1855 57.2247 48.873 56.9747 48.5354C56.6871 48.1728 56.2745 47.7852 55.7619 47.4102C54.6867 46.6225 53.1113 45.8598 51.2109 45.1972C47.4226 43.8719 42.259 42.9092 36.6453 42.4966C36.4078 42.9217 36.1702 43.3593 35.8952 43.8344C35.6076 44.347 35.3325 44.8471 35.07 45.3222C35.9452 45.4722 36.7704 45.6598 37.5205 45.8848C38.8583 46.2724 39.896 46.735 40.6962 47.2851C41.3463 47.7352 41.7714 48.1978 42.059 48.7479C42.2465 49.123 42.3465 49.5231 42.3465 49.9232C42.3465 50.4108 42.1965 50.9234 41.909 51.361C41.6714 51.7361 41.3463 52.0737 40.9212 52.3987C40.1961 52.9488 39.2459 53.4114 38.0206 53.8115C36.8579 54.1866 35.5201 54.4742 34.0573 54.6742C32.5695 54.9118 30.9691 55.0118 29.3063 55.0118ZM15.7784 43.4343C15.1657 43.4343 14.6531 42.9967 14.5531 42.3966C14.4281 41.7214 14.8907 41.0713 15.5658 40.9463C15.6408 40.9338 15.7159 40.9213 15.7784 40.9213C16.391 40.9213 16.9036 41.3589 17.0036 41.959C17.0661 42.2841 16.9911 42.6216 16.7911 42.8967C16.6035 43.1718 16.316 43.3468 15.9784 43.4093C15.9159 43.4343 15.8409 43.4343 15.7784 43.4343Z"/>
</mask>
<path d="M30.0064 59.9503C27.4184 59.9503 24.8428 59.8503 22.3673 59.6378C19.9668 59.4377 17.6413 59.1377 15.4658 58.7626C13.3153 58.375 11.3149 57.9124 9.55204 57.3873C7.75166 56.8497 6.17632 56.237 4.83853 55.5619C3.90083 55.0743 3.11316 54.5992 2.46303 54.0866C1.75037 53.5365 1.20026 52.9613 0.775166 52.3362C0.275059 51.561 0 50.6984 0 49.8607C0 49.023 0.275059 48.1603 0.800171 47.3852C1.27527 46.685 1.91291 46.0349 2.7881 45.4097C3.58827 44.8346 4.55097 44.2845 5.66371 43.7844C6.73894 43.2968 7.9642 42.8467 9.32699 42.4216C9.70207 42.3091 10.1147 42.3841 10.4272 42.6091C10.6523 42.7717 10.8023 42.9967 10.8898 43.2468C10.9273 43.3718 10.9398 43.4968 10.9398 43.6218C10.9398 44.172 10.5773 44.6471 10.0521 44.8096C8.16424 45.3847 6.58891 46.0349 5.33864 46.735C4.18839 47.3852 3.31321 48.1103 2.87561 48.7729C2.62556 49.1605 2.50053 49.4981 2.50053 49.8607C2.50053 50.2233 2.62556 50.5608 2.87561 50.9484C3.16318 51.386 3.63828 51.8486 4.25091 52.2862C5.56369 53.2489 7.56412 54.1491 10.0396 54.9118C15.2658 56.5246 22.5423 57.4498 29.9814 57.4498H30.0189C37.1829 57.4498 44.0094 56.6246 49.223 55.1368C49.3355 55.0993 49.4481 55.0868 49.5731 55.0868C50.1232 55.0868 50.6233 55.4619 50.7733 55.9995C50.9609 56.6621 50.5733 57.3498 49.9107 57.5498C47.2351 58.3125 44.1844 58.9126 40.8462 59.3127C37.408 59.7253 33.7572 59.9378 30.0064 59.9503ZM55.3743 55.2743C54.9242 55.2743 54.5116 55.0368 54.2866 54.6492C54.1241 54.3616 54.0741 54.0241 54.1616 53.699C54.2491 53.3739 54.4616 53.1114 54.7492 52.9363C54.9367 52.8238 55.1493 52.7738 55.3743 52.7738C55.8244 52.7738 56.237 53.0114 56.4621 53.3989C56.7996 53.9991 56.5996 54.7617 55.9995 55.0993C55.8119 55.2118 55.5869 55.2743 55.3743 55.2743ZM29.3063 55.0118C27.1683 55.0118 25.0554 54.8242 23.205 54.4867C21.3296 54.1366 19.7917 53.649 18.629 53.0239C17.7038 52.5237 17.1037 52.0111 16.6911 51.3735C16.416 50.9359 16.2535 50.4233 16.2535 49.9357C16.2535 49.3481 16.466 48.8605 16.6411 48.5604C16.8536 48.1978 17.1537 47.8603 17.5412 47.5477C18.2039 47.0101 19.0541 46.5725 20.1918 46.1599C21.8172 45.5848 23.8801 45.1847 26.1306 44.9846C25.9305 44.6346 25.718 44.272 25.518 43.9344C25.2304 43.4343 24.9428 42.9217 24.6553 42.4216C23.7926 42.4716 22.9174 42.5341 22.0797 42.6091C21.7296 42.6466 21.3796 42.5216 21.1295 42.2841C20.892 42.0715 20.7544 41.784 20.7294 41.4714C20.7044 41.1338 20.8044 40.8087 21.017 40.5587C21.2295 40.3086 21.5296 40.1461 21.8672 40.1211C22.9924 40.0211 24.1552 39.9336 25.3179 39.8836C25.793 39.8585 26.2431 40.1086 26.4682 40.5212C26.8807 41.2588 27.3058 41.9965 27.7059 42.6967C28.006 43.2093 28.306 43.7469 28.6311 44.3095C28.7311 44.472 28.8187 44.6346 28.9062 44.7846L28.9562 44.8846C29.0187 44.9971 29.0812 45.0972 29.1437 45.2097L29.3188 45.5098C29.5438 45.8973 29.5438 46.3599 29.3313 46.7475C29.1187 47.1351 28.7186 47.3726 28.281 47.3852C26.4431 47.4352 24.6553 47.6352 23.1174 47.9603C21.6921 48.2603 20.4544 48.6854 19.6542 49.1355C19.1041 49.4356 18.854 49.7357 18.7915 49.8482C18.779 49.8732 18.754 49.9107 18.754 49.9357C18.754 49.9482 18.7665 49.9857 18.804 50.0357C18.829 50.0732 18.9415 50.2358 19.1916 50.4233C19.6417 50.7734 20.4294 51.1485 21.3421 51.436C23.405 52.1112 26.3056 52.4987 29.2813 52.4987H29.3188C31.3067 52.4987 33.2571 52.3362 34.9575 52.0111C36.5328 51.7236 37.9081 51.286 38.8208 50.7984C39.3709 50.5108 39.721 50.1983 39.821 50.0232C39.846 49.9732 39.871 49.9357 39.871 49.9232C39.871 49.9107 39.8585 49.8982 39.846 49.8607C39.8335 49.8232 39.7835 49.7357 39.646 49.6106C39.3959 49.3606 38.9083 49.0605 38.3457 48.8105C37.0579 48.2353 35.095 47.7727 32.957 47.5352C32.5319 47.4852 32.1694 47.2351 31.9818 46.86C31.7943 46.485 31.7943 46.0474 32.0068 45.6723L32.0318 45.6223C32.1569 45.4097 32.2694 45.1972 32.4069 44.9721C32.4194 44.9471 32.4319 44.9346 32.4444 44.9096L32.4694 44.8721C32.582 44.6846 32.682 44.4845 32.7945 44.2845C33.0821 43.7719 33.4071 43.2093 33.7322 42.6091C34.1573 41.8465 34.5199 41.2088 34.8574 40.5837C35.095 40.1586 35.5451 39.9086 36.0327 39.9461C40.1086 40.2086 43.8969 40.7337 47.2851 41.4964C50.6608 42.2591 53.4489 43.2218 55.5619 44.347C57.0872 45.1722 58.1999 46.0349 58.9501 46.9976C59.4377 47.6227 59.7628 48.2728 59.9128 48.948C59.9253 49.0355 59.9378 49.123 59.9378 49.2105C59.9378 49.4856 59.8378 49.7732 59.6752 49.9857C59.5002 50.2108 59.2502 50.3733 58.9626 50.4358C58.6 50.5108 58.2124 50.4233 57.9124 50.1983C57.6873 50.0232 57.5248 49.7732 57.4623 49.4981C57.3998 49.1855 57.2247 48.873 56.9747 48.5354C56.6871 48.1728 56.2745 47.7852 55.7619 47.4102C54.6867 46.6225 53.1113 45.8598 51.2109 45.1972C47.4226 43.8719 42.259 42.9092 36.6453 42.4966C36.4078 42.9217 36.1702 43.3593 35.8952 43.8344C35.6076 44.347 35.3325 44.8471 35.07 45.3222C35.9452 45.4722 36.7704 45.6598 37.5205 45.8848C38.8583 46.2724 39.896 46.735 40.6962 47.2851C41.3463 47.7352 41.7714 48.1978 42.059 48.7479C42.2465 49.123 42.3465 49.5231 42.3465 49.9232C42.3465 50.4108 42.1965 50.9234 41.909 51.361C41.6714 51.7361 41.3463 52.0737 40.9212 52.3987C40.1961 52.9488 39.2459 53.4114 38.0206 53.8115C36.8579 54.1866 35.5201 54.4742 34.0573 54.6742C32.5695 54.9118 30.9691 55.0118 29.3063 55.0118ZM15.7784 43.4343C15.1657 43.4343 14.6531 42.9967 14.5531 42.3966C14.4281 41.7214 14.8907 41.0713 15.5658 40.9463C15.6408 40.9338 15.7159 40.9213 15.7784 40.9213C16.391 40.9213 16.9036 41.3589 17.0036 41.959C17.0661 42.2841 16.9911 42.6216 16.7911 42.8967C16.6035 43.1718 16.316 43.3468 15.9784 43.4093C15.9159 43.4343 15.8409 43.4343 15.7784 43.4343Z" fill="#14282F" stroke="white" stroke-width="0.4" mask="url(#path-1-inside-1)"/>
<path d="M39.9064 50.0858L39.9063 50.0858C39.847 50.1895 39.7229 50.3208 39.5509 50.4594C39.3766 50.5998 39.1461 50.7533 38.866 50.8997C38.8658 50.8998 38.8657 50.8999 38.8656 50.8999L38.8193 50.8113C37.9066 51.2989 36.5313 51.7365 34.9559 52.0241L39.9064 50.0858ZM39.9064 50.0858L39.9089 50.0809C39.9175 50.0638 39.9256 50.049 39.9336 50.0346C39.9363 50.0297 39.939 50.0248 39.9417 50.0199C39.9464 50.0113 39.9519 50.0009 39.9563 49.9911C39.9586 49.9862 39.9614 49.9796 39.9637 49.9721C39.9658 49.9657 39.9695 49.9525 39.9695 49.9361C39.9695 49.916 39.9643 49.8999 39.9605 49.8901C39.9574 49.882 39.9535 49.8742 39.9516 49.8704L39.9511 49.8695C39.947 49.8612 39.9433 49.8538 39.9394 49.842C39.9192 49.7815 39.8556 49.6807 39.7135 49.5512C39.4377 49.2761 38.9501 48.9833 38.3848 48.732C37.2482 48.2268 35.6129 47.7999 33.7818 47.5491L33.7146 47.5399L33.6812 47.5988C32.5676 49.5633 31.8317 50.8354 31.7459 50.9702L31.7458 50.9701L31.7438 50.9736C31.5364 51.3308 31.1565 51.549 30.755 51.549C30.3582 51.549 29.9824 51.3358 29.7734 50.9978C29.7733 50.9975 29.7732 50.9972 29.7731 50.9969C29.7685 50.9831 29.761 50.9678 29.749 50.9529C29.6519 50.7854 29.493 50.5172 29.2816 50.1605C28.8905 49.5007 28.3197 48.5377 27.6283 47.3478L27.5978 47.2953L27.5371 47.2982C25.9566 47.3735 24.4261 47.5741 23.0956 47.8503L23.0953 47.8503C21.665 48.1515 20.4166 48.5791 19.6042 49.036C19.0435 49.3419 18.777 49.6537 18.7026 49.7875L18.6962 49.7991L18.693 49.8118C18.6889 49.828 18.6828 49.8426 18.6746 49.8623L18.6742 49.8633C18.6705 49.8722 18.6655 49.8844 18.6615 49.8966C18.6577 49.9084 18.6525 49.927 18.6525 49.9486C18.6525 50.01 18.6854 50.0591 18.7209 50.1065C18.753 50.1544 18.8731 50.3233 19.1294 50.5157C19.5928 50.8759 20.3926 51.2551 21.3099 51.5442C23.3859 52.2234 26.2974 52.6117 29.2797 52.6117H29.3172C31.3107 52.6117 33.2672 52.4362 34.974 52.1224L39.9064 50.0858ZM17.6025 47.626L17.6027 47.6258C18.2534 47.0979 19.0921 46.665 20.2239 46.2545C22.3493 45.5088 25.1139 45.0598 28.1948 44.9725C28.6209 44.961 29.0111 45.1796 29.2176 45.5467L29.2176 45.5467L29.2184 45.5481C29.3765 45.8186 29.5348 46.0907 29.6931 46.3628C30.01 46.9077 30.3271 47.4529 30.6441 47.9867L30.7313 48.1337L30.8167 47.9856C31.2419 47.2478 31.6671 46.4975 32.092 45.7475C32.3002 45.3894 32.6806 45.1601 33.0931 45.1601C33.1432 45.1601 33.1695 45.1604 33.2063 45.1696L33.2061 45.1705L33.2196 45.172C34.8028 45.3465 36.2474 45.6206 37.5037 45.9813C38.8347 46.3669 39.8616 46.8256 40.6503 47.3678C41.2897 47.8105 41.7024 48.2614 41.9809 48.7939C42.1618 49.156 42.2575 49.5406 42.2575 49.9236C42.2575 50.3914 42.1134 50.885 41.8363 51.3065L41.8354 51.3079C41.6056 51.6708 41.2896 52 40.8715 52.3197C40.1582 52.8608 39.2193 53.3189 38.0008 53.7168C36.8444 54.0898 35.5125 54.3887 34.0547 54.588L34.0534 54.5882C32.559 54.8124 30.9637 54.9122 29.3047 54.9122C27.1724 54.9122 25.0655 54.7251 23.2216 54.3888C21.3521 54.0398 19.8253 53.5547 18.6749 52.9363C17.7596 52.4415 17.1745 51.9391 16.7739 51.3201C16.5077 50.8965 16.352 50.4023 16.352 49.9361C16.352 49.3722 16.5562 48.9022 16.7259 48.6113C16.9313 48.2609 17.2227 47.9323 17.6025 47.626Z" fill="#14282F" stroke="white" stroke-width="0.2"/>
<path d="M30.714 48.1474L30.6303 47.98L29.5861 45.8917C29.4619 45.6681 29.3252 45.432 29.1879 45.195L29.1849 45.1897L29.185 45.1896C29.1819 45.1832 29.1788 45.1784 29.1725 45.1691C29.1666 45.1601 29.1577 45.1469 29.1488 45.1295C29.1159 45.0711 29.0817 45.0111 29.0469 44.9501C28.9644 44.8056 28.8786 44.6551 28.7993 44.5054C28.4992 43.9802 28.1866 43.4176 27.8619 42.8306C27.4136 42.0336 27.0768 41.4225 26.7407 40.8126C26.7335 40.8027 26.7287 40.7934 26.7255 40.7865C26.7221 40.7789 26.7194 40.7715 26.7178 40.7667L26.7157 40.7646L26.706 40.7549L26.6992 40.7428C26.1874 39.8303 25.6953 38.9277 25.2233 38.0621C25.1647 37.9545 25.1063 37.8475 25.0483 37.7411L25.0483 37.7411C22.46 32.9896 20.3587 28.9747 18.8198 25.7844M30.714 48.1474L18.9098 25.7407M30.714 48.1474L30.8066 47.9847C30.9511 47.7308 31.0989 47.4734 31.2482 47.2133C31.5246 46.7319 31.8063 46.2413 32.0823 45.7459L32.0824 45.7458C32.2069 45.5217 32.344 45.2849 32.4816 45.0472L32.4818 45.0473L32.4845 45.0418C32.4877 45.0355 32.4908 45.0307 32.497 45.0213C32.503 45.0124 32.5119 44.9992 32.5208 44.9817M30.714 48.1474L30.6659 47.8276M18.8198 25.7844C18.8198 25.7843 18.8197 25.7842 18.8197 25.7842L18.9098 25.7407M18.8198 25.7844C18.8198 25.7844 18.8198 25.7844 18.8198 25.7844L18.9098 25.7407M18.8198 25.7844C17.37 22.7972 16.3537 20.415 15.9757 19.08M18.9098 25.7407C17.4595 22.7526 16.4467 20.3771 16.0717 19.0518M15.9757 19.08C15.9758 19.0803 15.9759 19.0807 15.976 19.081L16.0717 19.0518M15.9757 19.08C15.8373 18.6267 15.7841 18.266 15.7841 18.1516C15.7841 11.7605 19.5462 6.08473 25.3732 3.69351L25.374 3.69317C25.6612 3.57831 25.8786 3.36089 25.9935 3.07374C26.11 2.78242 26.12 2.47302 25.9948 2.18844L25.9932 2.18491L25.9933 2.18489C25.8216 1.7499 25.3972 1.473 24.9236 1.473C24.7762 1.473 24.6267 1.50708 24.4869 1.56533L24.4865 1.56552C22.883 2.2243 21.3911 3.11938 20.0355 4.21374M15.9757 19.08C15.9756 19.0797 15.9755 19.0793 15.9754 19.079L16.0717 19.0518M16.0717 19.0518L20.0355 4.21374M20.0355 4.21374C20.0356 4.2137 20.0356 4.21366 20.0357 4.21362L19.9725 4.13609M20.0355 4.21374L25.4112 3.78602C25.7237 3.66099 25.9613 3.42344 26.0863 3.11088C26.2113 2.79831 26.2238 2.46074 26.0863 2.14817C25.8988 1.67307 25.4362 1.373 24.9236 1.373C24.761 1.373 24.5985 1.41051 24.4485 1.47303C22.8356 2.13567 21.3353 3.03586 19.9725 4.13609M20.0355 4.21374C18.6929 5.30772 17.5244 6.58813 16.5547 8.03021L16.5546 8.03036C14.5404 11.0144 13.4711 14.5082 13.4711 18.1391C13.4711 18.6372 13.5803 19.1261 13.7423 19.7119C13.9038 20.2585 14.1278 20.9055 14.4269 21.6657L14.4269 21.6659C14.9631 23.0376 15.7244 24.7101 16.7243 26.7975C18.2863 30.0087 20.3984 34.0705 23.0109 38.8455L23.0109 38.8456C23.5344 39.8054 24.0952 40.8273 24.6685 41.8617C24.6807 41.8773 24.6872 41.8921 24.6913 41.9023C24.6931 41.9068 24.6943 41.9099 24.6953 41.9124C24.697 41.9171 24.698 41.9195 24.7004 41.9245L24.712 41.9475C24.8989 42.2841 25.089 42.6237 25.2792 42.9636L25.2796 42.9643L25.2801 42.9652C25.4705 43.3054 25.6609 43.6457 25.8483 43.9829M20.0355 4.21374C20.0354 4.2138 20.0354 4.21385 20.0353 4.2139L19.9725 4.13609M19.9725 4.13609C18.6222 5.23633 17.447 6.5241 16.4718 7.97441C14.4463 10.9751 13.3711 14.4883 13.3711 18.1391C13.3711 18.6517 13.4836 19.1518 13.6461 19.7394L25.8483 43.9829M26.7865 40.6939C26.2749 39.7821 25.7832 38.8801 25.3112 38.0145L25.3112 38.0143L25.1361 37.6933L26.7865 40.6939ZM26.7865 40.6939L26.799 40.7064C26.8052 40.7127 26.8083 40.722 26.8115 40.7314C26.8146 40.7408 26.8177 40.7502 26.824 40.7564L26.8242 40.7568C27.1617 41.3693 27.4992 41.9819 27.9492 42.7818C28.2743 43.3695 28.5868 43.9321 28.8869 44.4572C28.9656 44.6059 29.0505 44.7546 29.1328 44.899L29.1329 44.8991C29.1683 44.9611 29.2032 45.0223 29.237 45.0823C29.2432 45.0948 29.2495 45.1042 29.2557 45.1136L29.2558 45.1136C29.262 45.123 29.2682 45.1324 29.2745 45.1448C29.412 45.3824 29.5495 45.6199 29.6746 45.845L30.6659 47.8276M26.7865 40.6939L30.6659 47.8276M30.6659 47.8276C30.6549 47.847 30.6438 47.8664 30.6328 47.8858L30.7197 47.9352L30.8092 47.8905L30.7793 47.8307C30.9051 47.6101 31.033 47.3873 31.162 47.1626C31.4381 46.6817 31.7192 46.1921 31.995 45.6973C32.12 45.4722 32.2576 45.2347 32.3951 44.9971C32.3981 44.9911 32.4011 44.9859 32.404 44.981C32.4073 44.9757 32.4105 44.9708 32.4138 44.966L32.4138 44.9658L32.4139 44.9658C32.4201 44.9564 32.4263 44.9471 32.4326 44.9346M32.4326 44.9346L32.5198 44.9836C32.5201 44.983 32.5205 44.9824 32.5208 44.9817M32.4326 44.9346C32.4664 44.8745 32.5013 44.8133 32.5367 44.7512L32.5368 44.7511L32.5368 44.751C32.6192 44.6067 32.704 44.4581 32.7827 44.3095L32.4326 44.9346ZM32.5208 44.9817C32.5537 44.9234 32.5879 44.8634 32.6227 44.8024C32.7051 44.6579 32.791 44.5074 32.8703 44.3577M32.5208 44.9817L32.8703 44.3577M32.8703 44.3577C33.1704 43.8325 33.4829 43.27 33.8076 42.683C34.256 41.8859 34.5927 41.2748 34.9289 40.6648C34.9361 40.655 34.9409 40.6457 34.9441 40.6387C34.9475 40.6312 34.9501 40.6237 34.9518 40.6189L34.9538 40.6169L34.9636 40.6071L34.9703 40.5951C35.4822 39.6827 35.9742 38.7802 36.4462 37.9145C36.5048 37.8069 36.5632 37.6998 36.6213 37.5934L36.6213 37.5934C39.2096 32.8419 41.3109 28.8269 42.8498 25.6366C44.2996 22.6494 45.3159 20.2671 45.6939 18.9321C45.8323 18.4789 45.8855 18.1183 45.8855 18.0038C45.8855 11.6127 42.1234 5.93698 36.2964 3.54576L36.2956 3.54543C36.0084 3.43056 35.791 3.21315 35.6761 2.92599C35.5596 2.63467 35.5496 2.32527 35.6748 2.0407L35.6749 2.04073L35.6763 2.03714C35.848 1.60216 36.2724 1.32526 36.746 1.32526C36.8934 1.32526 37.0429 1.35934 37.1827 1.41759L37.1831 1.41778C38.7865 2.07654 40.2784 2.97159 41.634 4.06592C42.9766 5.15991 44.1452 6.44035 45.1149 7.88247L45.115 7.88262C47.1292 10.8667 48.1985 14.3604 48.1985 17.9913C48.1985 18.4895 48.0893 18.9784 47.9273 19.5643C47.7658 20.1108 47.5418 20.7578 47.2427 21.518L47.2427 21.5182C46.7065 22.8898 45.9452 24.5622 44.9453 26.6496C43.3834 29.8609 41.2712 33.9227 38.6587 38.6978L38.6587 38.6979C38.1351 39.6577 37.5743 40.6796 37.0011 41.714C36.9888 41.7296 36.9823 41.7444 36.9782 41.7546C36.9731 41.7676 36.9729 41.7692 36.9691 41.7767L36.9576 41.7998C36.7705 42.1366 36.5803 42.4765 36.3899 42.8166L36.3883 42.8195C36.1983 43.159 36.0082 43.4986 35.8213 43.8352C35.5335 44.3357 35.2332 44.8736 34.871 45.5232L32.8703 44.3577ZM25.8483 43.9829C26.1361 44.4834 26.4363 45.0214 26.7986 45.6709L25.8483 43.9829ZM34.8708 45.5235L34.7584 45.7232L34.7578 45.7244C34.7207 45.7924 34.6805 45.8636 34.6398 45.9356L34.6394 45.9364C34.5993 46.0073 34.5588 46.0789 34.5212 46.1477L34.4848 46.2084C34.3711 46.3979 34.2702 46.5871 34.1706 46.7738C34.1706 46.7739 34.1705 46.774 34.1704 46.7741L34.0841 46.9221L34.0834 46.9233C33.4025 48.1269 32.8306 49.1236 32.4165 49.8454C32.0862 50.4211 31.8563 50.8218 31.7516 51.0128L31.7493 51.0152L31.7398 51.0247L31.7331 51.0363C31.5554 51.3473 31.1877 51.5654 30.78 51.5733L29.9096 51.1454C29.8013 50.9487 29.5748 50.554 29.2531 49.9932C28.839 49.2714 28.267 48.2746 27.5862 47.071L27.5855 47.0699L27.4992 46.9221C27.4991 46.9219 27.499 46.9217 27.4989 46.9215C27.3994 46.7348 27.2985 46.5456 27.1848 46.3562L27.1483 46.2954C27.1107 46.2264 27.07 46.1545 27.0298 46.0834C26.9891 46.0113 26.9488 45.9401 26.9118 45.8721L26.9111 45.871L26.7988 45.6713L34.8708 45.5235ZM36.2584 3.63827C35.9458 3.51325 35.7083 3.2757 35.5833 2.96313C35.4582 2.65056 35.4457 2.31299 35.5833 2.00043C35.7708 1.52532 36.2334 1.22526 36.746 1.22526C36.9086 1.22526 37.0711 1.26277 37.2211 1.32528C38.834 1.98792 40.3343 2.88811 41.6971 3.98835C43.0474 5.08858 44.2226 6.37636 45.1978 7.82667L36.2584 3.63827ZM34.8831 40.5462C35.3947 39.6343 35.8864 38.7323 36.3584 37.8666L36.5335 37.5455L34.8831 40.5462ZM30.6572 2.41303C30.3477 2.41303 30.0602 2.28717 29.8402 2.06724C29.6221 1.84914 29.5069 1.56231 29.5069 1.25027C29.5069 0.617847 30.0248 0.1 30.6572 0.1C30.9693 0.1 31.2561 0.215181 31.4742 0.433288C31.6923 0.651395 31.8075 0.938223 31.8075 1.25027C31.8075 1.89584 31.289 2.41303 30.6572 2.41303Z" fill="#14282F" stroke="white" stroke-width="0.2"/>
<path d="M27.4083 26.5635L27.4077 26.5633C26.2321 26.0683 25.1677 25.3506 24.2642 24.4471C23.36 23.5304 22.6423 22.4783 22.1474 21.303L22.1473 21.3028C21.6275 20.0775 21.3676 18.7905 21.3676 17.4535C21.3676 16.1163 21.6276 14.817 22.1472 13.6046L22.1474 13.604C22.6424 12.4284 23.3602 11.364 24.2637 10.4605C25.1803 9.55625 26.2324 8.83855 27.4077 8.3437L27.4079 8.34359C28.6332 7.82377 29.9202 7.56387 31.2572 7.56387C32.5944 7.56387 33.8937 7.82384 35.1061 8.34345L35.1067 8.3437C36.2825 8.83875 37.3469 9.55658 38.2505 10.4602C39.1541 11.3638 39.872 12.4282 40.367 13.604L40.3671 13.6042C40.8869 14.8295 41.1468 16.1165 41.1468 17.4535C41.1468 18.7907 40.8869 20.09 40.3673 21.3024L40.367 21.303C39.872 22.4787 39.1542 23.543 38.2507 24.4466C37.3341 25.3507 36.2821 26.0684 35.1069 26.5632C33.8935 27.0709 32.5938 27.3431 31.2572 27.3431C29.92 27.3431 28.6207 27.0832 27.4083 26.5635ZM31.2578 9.82689H31.2572C29.2301 9.82689 27.3168 10.6252 25.8854 12.0567C24.4539 13.4881 23.6556 15.4014 23.6556 17.4285C23.6556 19.4556 24.4539 21.3689 25.8854 22.8003C27.3168 24.2318 29.2301 25.0301 31.2572 25.0301C33.2843 25.0301 35.1976 24.2318 36.6291 22.8003L36.6294 22.8C38.0603 21.3564 38.8588 19.4559 38.8588 17.4285C38.8588 15.4014 38.0605 13.4881 36.6291 12.0567C35.1973 10.6249 33.2841 9.83956 31.2578 9.82689Z" fill="#14282F" stroke="white" stroke-width="0.2"/>
<path d="M3.81328 28.1709L3.79936 28.1456L3.77411 28.1317L1.19916 26.7067C1.19907 26.7066 1.19897 26.7066 1.19888 26.7065C0.829424 26.4986 0.6 26.1188 0.6 25.6936C0.6 25.2685 0.829322 24.8888 1.19863 24.6808L3.78611 23.2683L3.81189 23.2543L3.82596 23.2285L5.23845 20.641C5.44643 20.2717 5.82612 20.0424 6.25123 20.0424C6.67633 20.0424 7.05603 20.2717 7.264 20.641C7.2641 20.6412 7.2642 20.6414 7.2643 20.6415L8.67649 23.2285L8.69057 23.2543L8.71635 23.2683L11.3033 24.6805C11.3035 24.6806 11.3036 24.6807 11.3038 24.6808C11.6731 24.8888 11.9025 25.2685 11.9025 25.6936C11.9025 26.1068 11.6726 26.4987 11.3038 26.7064C11.3036 26.7065 11.3035 26.7066 11.3033 26.7067L8.71635 28.1189L8.69057 28.1329L8.67649 28.1587L7.26369 30.7468L7.26367 30.7468C7.05561 31.1283 6.67613 31.3573 6.25123 31.3573C5.82606 31.3573 5.44632 31.128 5.23836 30.7586C5.23829 30.7584 5.23822 30.7583 5.23815 30.7582L3.81328 28.1709ZM4.30277 25.6059L4.14272 25.6936L4.30277 25.7813L5.21546 26.2814L5.21546 26.2814L5.21673 26.2821C5.41155 26.3852 5.5721 26.5458 5.67524 26.7406L5.67523 26.7406L5.67593 26.7419L6.17603 27.6546L6.26373 27.8146L6.35143 27.6546L6.85099 26.7428C6.85108 26.7427 6.85116 26.7425 6.85125 26.7424C6.95593 26.5565 7.11789 26.3842 7.31073 26.2821L7.31074 26.2821L7.312 26.2814L8.22469 25.7813L8.38474 25.6936L8.22469 25.6059L7.312 25.1058L7.312 25.1058L7.31073 25.1051C7.11591 25.002 6.95536 24.8414 6.85221 24.6466L6.85222 24.6466L6.85153 24.6453L6.35143 23.7327L6.26373 23.5726L6.17603 23.7327L5.67647 24.6444C5.67638 24.6445 5.67629 24.6447 5.6762 24.6448C5.57152 24.8307 5.40957 25.003 5.21673 25.1051L5.21672 25.1051L5.21546 25.1058L4.30277 25.6059Z" fill="#14282F" stroke="white" stroke-width="0.2"/>
<path d="M51.824 36.9224L51.8099 36.8966L51.7842 36.8825L49.1972 35.4704C49.197 35.4703 49.1969 35.4702 49.1967 35.4701C48.8274 35.2621 48.598 34.8824 48.598 34.4573C48.598 34.0322 48.8274 33.6525 49.1967 33.4445L51.7842 32.032L51.8099 32.0179L51.824 31.9922L53.2365 29.4047C53.4445 29.0354 53.8242 28.8061 54.2493 28.8061C54.6744 28.8061 55.0541 29.0354 55.2621 29.4047C55.2622 29.4049 55.2623 29.405 55.2624 29.4052L56.6745 31.9922L56.6886 32.0179L56.7144 32.032L59.3013 33.4442C59.3015 33.4443 59.3017 33.4444 59.3018 33.4445C59.6712 33.6525 59.9005 34.0322 59.9005 34.4573C59.9005 34.8705 59.6707 35.2624 59.3018 35.4701C59.3017 35.4702 59.3015 35.4703 59.3013 35.4704L56.7144 36.8825L56.6886 36.8966L56.6745 36.9224L55.2617 39.5105L55.2612 39.5115C55.0666 39.8778 54.6761 40.1085 54.2493 40.1085C53.8361 40.1085 53.4442 39.8787 53.2365 39.5099C53.2364 39.5097 53.2363 39.5095 53.2362 39.5093L51.824 36.9224ZM52.3008 34.3571L52.1408 34.4448L52.3008 34.5325L53.2135 35.0326L53.2135 35.0326L53.2148 35.0333C53.4096 35.1364 53.5701 35.297 53.6733 35.4918L53.6733 35.4918L53.674 35.493L54.1741 36.4057L54.2618 36.5658L54.3495 36.4057L54.849 35.494C54.8491 35.4939 54.8492 35.4937 54.8493 35.4936C54.954 35.3077 55.1159 35.1354 55.3088 35.0333L55.3088 35.0333L55.31 35.0326L56.2227 34.5325L56.3828 34.4448L56.2227 34.3571L55.31 33.857L55.31 33.857L55.3088 33.8563C55.114 33.7531 54.9534 33.5926 54.8503 33.3978L54.8503 33.3978L54.8496 33.3965L54.3495 32.4838L54.2618 32.3238L54.1741 32.4838L53.6745 33.3955C53.6744 33.3957 53.6743 33.3959 53.6742 33.396C53.5696 33.5819 53.4076 33.7542 53.2148 33.8563L53.2148 33.8563L53.2135 33.857L52.3008 34.3571Z" fill="#14282F" stroke="white" stroke-width="0.2"/>
</g>
</svg>
