<svg width="125" height="125" viewBox="0 0 125 125" fill="none" xmlns="http://www.w3.org/2000/svg">
<rect width="125" height="125" fill="#14282F" fill-opacity="0.8"/>
<path d="M26.418 49.5254V69.7371H46.6297L26.418 49.5254Z" fill="white"/>
<path d="M26.418 33.2231L46.6297 52.9357L58.3575 41.2911L49.125 32.3081L62.2667 19L75.5749 32.1418L46.6297 61.4197L26.418 41.5406V33.2231Z" fill="#FFC000"/>
<path d="M62.369 26.9924L57.1934 32.168L62.369 37.3436L67.5446 32.168L62.369 26.9924Z" fill="#FF0500"/>
<path d="M66.7578 49.5256L78.7351 61.4197L98.6141 42.2893V33.9717L78.9015 53.2685L70.9166 45.2004L66.7578 49.5256Z" fill="#FFC000"/>
<path d="M50.5391 65.4124L54.6147 69.7375H78.3198L62.2669 53.6846L50.5391 65.4124Z" fill="white"/>
<path d="M98.6153 49.1924V69.7368H86.3884L82.1465 65.4117L98.6153 49.1924Z" fill="white"/>
<path d="M33.1548 74.5605C34.9847 74.5605 36.9809 75.1428 38.3117 76.4736L36.7314 78.9689C35.8164 78.2203 34.4856 77.5549 33.3212 77.5549C30.5764 77.5549 29.4119 79.4679 29.4119 81.4641C29.4119 83.4604 30.6595 85.6229 33.3212 85.6229C34.652 85.6229 36.066 84.8743 36.9809 83.9594L38.7276 86.4547C37.4799 87.7023 35.7333 88.7836 33.238 88.7836C28.8297 88.7836 26.0017 85.7061 26.0017 81.6305C25.9185 77.6381 28.9128 74.5605 33.1548 74.5605Z" fill="#FFC000"/>
<path d="M40.3926 74.7266H45.1336C46.5476 74.7266 47.213 74.8097 47.7952 75.0593C49.3756 75.6415 50.2905 77.0555 50.2905 79.0517C50.2905 80.5489 49.6251 82.1292 48.2111 82.7946C48.2111 82.7946 48.3775 83.0441 48.7102 83.6264L51.3718 88.4506H47.6289L45.2999 83.8759H43.7196V88.5337H40.3926V74.7266ZM45.2168 80.9647C46.2981 80.9647 46.9635 80.3825 46.9635 79.3012C46.9635 78.6358 46.7971 78.0536 46.1317 77.8041C45.799 77.6377 45.3831 77.6377 44.8841 77.6377H43.7196V80.9647H45.2168Z" fill="#FFC000"/>
<path d="M59.2723 74.5605C63.5142 74.5605 66.4254 77.638 66.4254 81.5473C66.4254 85.5397 63.5142 88.7004 59.2723 88.7004C55.0303 88.7004 52.1191 85.5397 52.1191 81.5473C52.1191 77.638 55.0303 74.5605 59.2723 74.5605ZM59.2723 85.6229C61.4348 85.6229 63.0152 83.8762 63.0152 81.5473C63.0152 79.3016 61.518 77.638 59.2723 77.638C57.1097 77.638 55.5293 79.3016 55.5293 81.5473C55.6125 83.8762 57.1097 85.6229 59.2723 85.6229Z" fill="#FFC000"/>
<path d="M67.1738 74.7266H70.6672L72.4971 83.3768C72.6634 84.2086 72.6634 84.7908 72.6634 84.7908C72.6634 84.7908 72.6634 84.2086 72.913 83.3768L74.9924 74.7266H77.7372L79.8166 83.2937C80.0661 84.1254 80.0661 84.7077 80.0661 84.7077C80.0661 84.7077 80.0661 84.1254 80.2324 83.2937L82.1455 74.7266H85.6389L82.1455 88.4506H78.4026L76.6559 81.547C76.4063 80.632 76.4063 79.9666 76.4063 79.9666C76.4063 79.9666 76.3232 80.7152 76.1568 81.547L74.4101 88.4506H70.6672L67.1738 74.7266Z" fill="#FFC000"/>
<path d="M87.2188 74.7266H90.629L94.455 81.1311C94.9541 82.046 95.6195 83.46 95.6195 83.46C95.6195 83.46 95.4532 81.9629 95.4532 81.1311V74.7266H98.7802V88.4506H95.37L91.6271 82.1292C91.128 81.2143 90.4626 79.8003 90.4626 79.8003C90.4626 79.8003 90.629 81.2975 90.629 82.1292V88.5337H87.3019V74.7266H87.2188Z" fill="#FFC000"/>
<path d="M30.8262 93.0254H34.3196L36.0662 101.593C36.2326 102.424 36.2326 103.006 36.2326 103.006C36.2326 103.006 36.2326 102.424 36.4821 101.593L38.6447 93.0254H41.3895L43.3857 101.676C43.6352 102.507 43.6352 103.09 43.6352 103.09C43.6352 103.09 43.6352 102.507 43.8016 101.676L45.7146 93.0254H49.208L45.7146 106.749H41.9717L40.225 99.8458C39.9755 98.9309 39.9755 98.2655 39.9755 98.2655C39.9755 98.2655 39.8923 99.014 39.726 99.8458L37.9793 106.749H34.1532L30.8262 93.0254Z" fill="white"/>
<path d="M57.1099 92.8594C61.3519 92.8594 64.2631 95.9369 64.2631 99.8461C64.2631 103.839 61.3519 106.999 57.1099 106.999C52.868 106.999 49.9568 103.839 49.9568 99.8461C49.8736 95.9369 52.7848 92.8594 57.1099 92.8594ZM57.1099 103.922C59.2725 103.922 60.8528 102.175 60.8528 99.8461C60.8528 97.6004 59.3557 95.9369 57.1099 95.9369C54.9474 95.9369 53.367 97.6004 53.367 99.8461C53.367 102.175 54.9474 103.922 57.1099 103.922Z" fill="white"/>
<path d="M72.8289 92.8594C77.0709 92.8594 79.982 95.9369 79.982 99.8461C79.982 103.839 77.0709 106.999 72.8289 106.999C68.5869 106.999 65.6758 103.839 65.6758 99.8461C65.6758 95.9369 68.5869 92.8594 72.8289 92.8594ZM72.8289 103.922C74.9915 103.922 76.5718 102.175 76.5718 99.8461C76.5718 97.6004 75.0746 95.9369 72.8289 95.9369C70.6663 95.9369 69.086 97.6004 69.086 99.8461C69.086 102.175 70.6663 103.922 72.8289 103.922Z" fill="white"/>
<path d="M82.1445 93.0254H87.0519C91.377 93.0254 94.1218 95.5207 94.1218 99.8458C94.1218 104.171 91.377 106.749 87.0519 106.749H82.1445V93.0254ZM86.8856 103.921C89.2145 103.921 90.6285 102.507 90.6285 99.929C90.6285 97.3505 89.1313 95.9365 86.8856 95.9365H85.4716V103.921H86.8856Z" fill="white"/>
</svg>
